<?xml version="1.0" standalone="no"?>
<!DOCTYPE svg PUBLIC "-//W3C//DTD SVG 1.1//EN" "http://www.w3.org/Graphics/SVG/1.1/DTD/svg11.dtd" >
<svg xmlns="http://www.w3.org/2000/svg" xmlns:xlink="http://www.w3.org/1999/xlink" version="1.1">
<metadata>
Created by FontForge 20170731 at Wed Jan  6 19:21:21 2016
 By Aleksey,,,
Copyright (c) 2011 by Omnibus-Type (www.omnibus-type.com) with Reserved Font Name 'Rosario'. Copyright (c) 2013 by Adobe Systems Incorporated. All Rights Reserved.
</metadata>
<defs>
<font id="Rosario-BoldItalic" horiz-adv-x="585" >
  <font-face 
    font-family="Rosario"
    font-weight="700"
    font-style="italic"
    font-stretch="normal"
    units-per-em="1000"
    panose-1="2 0 5 3 4 0 0 2 0 3"
    ascent="779"
    descent="-221"
    x-height="497"
    cap-height="732"
    bbox="-226 -231 1070 977"
    underline-thickness="19"
    underline-position="-147"
    unicode-range="U+000D-FB02"
  />
<missing-glyph horiz-adv-x="234" 
 />
    <glyph glyph-name="fi" unicode="fi" horiz-adv-x="530" 
d="M525 631l-112 -31q0 34 -19.5 64t-49.5 30q-94 0 -122 -197h287l-59 -442l2 -55h-124l56 414h-173l-62 -461q-25 -183 -182 -183q-37 0 -77.5 11t-59.5 33l48 66q12 -12 34.5 -21.5t38.5 -9.5q69 0 85 116l61 449h-79l10 83h79q8 62 23 109t42 87t72 61.5t106 21.5
q20 0 44 -6.5t51.5 -21.5t49.5 -45.5t30 -71.5z" />
    <glyph glyph-name="fl" unicode="fl" horiz-adv-x="529" 
d="M549 769l-96 -715l3 -54h-127l82 617q1 5 1 16q0 61 -58 61q-32 0 -57.5 -20t-40 -53.5t-22 -62.5t-12.5 -61h118l-11 -83h-118l-62 -461q-25 -183 -182 -183q-37 0 -77.5 11t-59.5 33l48 66q12 -12 34.5 -21.5t38.5 -9.5q69 0 85 116l61 449h-79l10 83h79q8 62 23.5 109
t43 87t74 61.5t109.5 21.5q21 0 49.5 -9.5t45.5 -21.5z" />
    <glyph glyph-name=".notdef" horiz-adv-x="234" 
 />
    <glyph glyph-name=".null" horiz-adv-x="0" 
 />
    <glyph glyph-name=".null" horiz-adv-x="0" 
 />
    <glyph glyph-name="nonmarkingreturn" unicode="&#xd;" horiz-adv-x="234" 
 />
    <glyph glyph-name="space" unicode=" " horiz-adv-x="234" 
 />
    <glyph glyph-name="exclam" unicode="!" horiz-adv-x="246" 
d="M264 680q0 -9 -1 -13l-94 -458l-88 13l36 466q2 18 9 26t24 8q15 0 80 -10q34 -6 34 -32zM98 -15q-31 0 -54 23t-23 54q0 32 22.5 55t54.5 23t55 -23t23 -55t-23 -54.5t-55 -22.5z" />
    <glyph glyph-name="quotedbl" unicode="&#x22;" horiz-adv-x="300" 
d="M317 732l-24 -173q-43 -86 -52 -110h-22q0 3 -5.5 30.5t-10 53t-4.5 26.5l24 173h94zM170 732l-24 -173q-43 -86 -52 -110h-21q0 3 -5.5 30.5t-10.5 53.5l-5 26l24 173h94z" />
    <glyph glyph-name="numbersign" unicode="#" horiz-adv-x="640" 
d="M582 425h-114l-18 -128h106v-89h-118l-28 -208h-89l28 208h-94l-28 -208h-89l28 208h-106v89h118l18 128h-110v89h122l29 218h89l-29 -218h94l29 218h89l-29 -218h102v-89zM379 425h-94l-18 -128h94z" />
    <glyph glyph-name="dollar" unicode="$" horiz-adv-x="430" 
d="M373 180q0 -79 -50 -133t-138 -60l-25 -112h-69l45 113q-70 7 -125 41l52 82q60 -40 102 -40q33 0 56.5 19t23.5 54q0 23 -18.5 38.5t-45.5 26t-54 23t-45.5 38t-18.5 62.5q0 80 58.5 127t134.5 51l24 114h68l-44 -116q63 -8 100 -29l-50 -84q-39 34 -90 34
q-29 0 -51 -15t-22 -45q0 -21 18.5 -36t45.5 -25.5t54 -23.5t45.5 -39t18.5 -65z" />
    <glyph glyph-name="percent" unicode="%" horiz-adv-x="791" 
d="M764 245q0 -100 -51.5 -174.5t-146.5 -74.5q-72 0 -108 44t-36 117q0 100 51.5 174t146.5 74q72 0 108 -43.5t36 -116.5zM638 699l-424 -711h-67l393 657h-187q20 -37 20 -91q0 -100 -51.5 -175t-147.5 -75q-71 0 -107.5 44t-36.5 117q0 100 51.5 174t147.5 74
q40 0 69 -14h340zM661 247q0 79 -51 79q-25 0 -42.5 -19t-26.5 -48t-12.5 -55t-3.5 -49q0 -80 51 -80q25 0 42.5 19t26.5 48t12.5 55.5t3.5 49.5zM270 555q0 79 -52 79q-25 0 -42.5 -18.5t-26 -48t-12 -55.5t-3.5 -49q0 -80 51 -80q25 0 42.5 19t26.5 48t12.5 55.5t3.5 49.5
z" />
    <glyph glyph-name="ampersand" unicode="&#x26;" horiz-adv-x="642" 
d="M649 312q0 -110 -121 -110q-44 -109 -121 -161.5t-194 -52.5q-97 0 -155 49.5t-58 144.5q0 64 30 120.5t82 97.5q-21 39 -21 79q0 71 43 121.5t104 72t130 21.5q54 0 107.5 -20t87.5 -58l-60 -61q-25 25 -61.5 42.5t-68.5 17.5q-68 0 -116 -40t-48 -106q0 -10 1 -15
q54 19 105 19q50 0 86 -18t36 -63q0 -43 -47.5 -67.5t-95.5 -24.5q-68 0 -117 31q-45 -61 -45 -134q0 -55 31 -84.5t87 -29.5q106 0 161 76q15 24 15 36q0 25 -28 25q-12 0 -21.5 -8t-11.5 -20h-78q0 51 33 75t86 24l126 -12q15 0 26.5 9.5t12.5 23.5h78zM341 391
q0 16 -31 16q-36 0 -67 -18q21 -18 47 -18q14 0 32.5 5t18.5 15z" />
    <glyph glyph-name="quotesingle" unicode="'" horiz-adv-x="157" 
d="M170 732l-24 -173q-43 -86 -52 -110h-21q0 3 -5.5 30.5t-10.5 53.5l-5 26l24 173h94z" />
    <glyph glyph-name="parenleft" unicode="(" horiz-adv-x="323" 
d="M379 727q-112 -120 -167 -246.5t-55 -281.5q0 -168 108 -329l-93 -16q-127 176 -127 368q0 272 245 521z" />
    <glyph glyph-name="parenright" unicode=")" horiz-adv-x="328" 
d="M313 375q0 -272 -245 -521l-89 16q111 119 166.5 245.5t55.5 281.5q0 166 -107 330l92 16q127 -176 127 -368z" />
    <glyph glyph-name="asterisk" unicode="*" horiz-adv-x="405" 
d="M456 555l-161 -27l99 -106l-98 -69l-52 141l-90 -138l-77 64l127 111l-150 21l44 107l130 -74l-7 156h111l-47 -156l145 78z" />
    <glyph glyph-name="plus" unicode="+" horiz-adv-x="642" 
d="M565 205h-205v-205h-88v204h-205v88h205v205h88v-204h205v-88z" />
    <glyph glyph-name="comma" unicode="," horiz-adv-x="235" 
d="M181 62q0 -55 -43 -107t-100 -89l-33 41q56 47 56 77q0 6 -18 27.5t-18 47.5q0 34 23.5 57t55.5 23q34 0 55.5 -22.5t21.5 -54.5z" />
    <glyph glyph-name="hyphen" unicode="-" horiz-adv-x="313" 
d="M277 305l-13 -95h-221l13 95h221z" />
    <glyph glyph-name="period" unicode="." horiz-adv-x="215" 
d="M107 -12q-31 0 -54 23t-23 54q0 32 22.5 55t54.5 23t55 -23t23 -55t-23 -54.5t-55 -22.5z" />
    <glyph glyph-name="slash" unicode="/" horiz-adv-x="293" 
d="M345 732l-270 -732h-93l269 732h94z" />
    <glyph glyph-name="zero" unicode="0" horiz-adv-x="578" 
d="M539 301q0 -63 -16 -117.5t-49 -99.5t-89.5 -70.5t-130.5 -25.5q-103 0 -159.5 55t-56.5 154q0 147 77.5 230t207.5 83q105 0 160.5 -54.5t55.5 -154.5zM265 69q42 0 73 21.5t47 58t23 74.5t7 80q0 126 -103 126q-43 0 -74.5 -23t-47 -61t-22.5 -76.5t-7 -79.5
q0 -120 104 -120z" />
    <glyph glyph-name="one" unicode="1" horiz-adv-x="383" 
d="M328 0h-317l13 99h103l36 279l-106 -29l-12 64l175 85h74l-52 -399h99z" />
    <glyph glyph-name="two" unicode="2" horiz-adv-x="465" 
d="M432 99l-40 -99h-379v54q46 44 133.5 135t104.5 108q40 40 40 76q0 22 -14 35t-36 13q-55 0 -127 -66l-49 64q111 93 221 93q60 0 102 -30t42 -87q0 -74 -68 -139q-23 -22 -179 -157h249z" />
    <glyph glyph-name="three" unicode="3" horiz-adv-x="410" 
d="M365 112q0 -62 -29 -114.5t-76 -87.5t-107.5 -60t-122 -36.5t-120.5 -11.5h-8l-4 70q51 2 101.5 12t106 32.5t90 67.5t34.5 106q0 58 -59 58q-31 0 -68 -14l-25 72q60 27 115.5 80.5t55.5 107.5q0 34 -31 34q-45 0 -100 -49l-46 56q34 36 87.5 56t102.5 20q51 0 86.5 -22
t35.5 -68q0 -58 -56 -111.5t-124 -86.5q20 2 30 2q60 0 95.5 -28.5t35.5 -84.5z" />
    <glyph glyph-name="four" unicode="4" horiz-adv-x="497" 
d="M502 99l-17 -100h-95l-24 -183h-119l24 183h-270v58l330 441h124l-52 -399h99zM284 99l30 230l-171 -230h141z" />
    <glyph glyph-name="five" unicode="5" horiz-adv-x="372" 
d="M386 498l-33 -121h-178l-21 -50q167 -98 167 -245q0 -62 -29 -115t-76 -88t-101 -56.5t-111 -29.5l-21 62q89 28 150.5 82.5t61.5 139.5q0 60 -52.5 113.5t-116.5 82.5l97 225h263z" />
    <glyph glyph-name="six" unicode="6" horiz-adv-x="536" 
d="M482 246q0 -103 -72.5 -180.5t-184.5 -77.5q-96 0 -152 58.5t-56 154.5q0 79 29 152t80 132t110.5 105t129.5 82q86 44 141 58l18 -65q-96 -33 -189 -111t-146 -170q59 37 115 37q80 0 128.5 -48t48.5 -127zM234 71q55 0 87 50.5t32 111.5q0 44 -21 73t-63 29
q-59 0 -112 -53q-12 -48 -12 -84q0 -53 21.5 -90t67.5 -37z" />
    <glyph glyph-name="seven" unicode="7" horiz-adv-x="425" 
d="M417 434l-271 -623h-129l257 575h-274l30 111h387v-63z" />
    <glyph glyph-name="eight" unicode="8" horiz-adv-x="461" 
d="M429 202q0 -94 -65 -154t-170 -60q-77 0 -130 41.5t-53 116.5q0 25 3.5 46t14.5 40.5t18 32.5t27 31.5t27.5 25.5t33 27t31.5 25l-7 7q-27 30 -40 46.5t-24 44.5t-11 60q0 90 62.5 145t145.5 55q71 0 118.5 -36.5t47.5 -102.5q0 -26 -6 -49.5t-11.5 -38t-23.5 -35
t-24 -27t-32.5 -29t-31.5 -26.5q4 -5 12 -13q31 -34 45.5 -52.5t28.5 -51.5t14 -69zM269 456q26 20 40.5 33.5t28 39t13.5 54.5q0 30 -14 50t-44 20q-34 0 -56.5 -30.5t-22.5 -68.5q0 -9 1.5 -17t5.5 -16.5t6.5 -13.5t9.5 -14t9.5 -12t11.5 -13t11 -12zM198 69q43 0 73 34
t30 78q0 15 -4.5 29t-14.5 28.5t-17 23t-21.5 24.5t-18.5 20q-4 -3 -24.5 -19.5t-26.5 -22t-20.5 -20.5t-19.5 -26t-10.5 -28t-5.5 -36q0 -38 21.5 -61.5t58.5 -23.5z" />
    <glyph glyph-name="nine" unicode="9" horiz-adv-x="536" 
d="M517 297q0 -93 -43 -178t-114 -149t-157 -110.5t-179 -73.5l-17 65q100 34 191.5 104t145.5 160q-59 -37 -115 -37q-80 0 -128.5 47.5t-48.5 126.5q0 109 78.5 184t179.5 75q96 0 151.5 -59t55.5 -155zM378 217q11 48 11 84q0 53 -21.5 90t-67.5 37q-55 0 -86.5 -51.5
t-31.5 -110.5q0 -44 21 -73t63 -29q57 0 112 53z" />
    <glyph glyph-name="colon" unicode=":" horiz-adv-x="247" 
d="M100 -12q-31 0 -54 23t-23 54q0 32 22.5 55t54.5 23t55 -23t23 -55t-23 -54.5t-55 -22.5zM145 277q-31 0 -54 23t-23 54q0 32 22.5 55t54.5 23t55 -23t23 -55t-23 -54.5t-55 -22.5z" />
    <glyph glyph-name="semicolon" unicode=";" horiz-adv-x="253" 
d="M145 277q-31 0 -54 23t-23 54q0 32 22.5 55t54.5 23t55 -23t23 -55t-23 -54.5t-55 -22.5zM181 62q0 -55 -43 -107t-100 -89l-33 41q56 47 56 77q0 6 -18 27.5t-18 47.5q0 34 23.5 57t55.5 23q34 0 55.5 -22.5t21.5 -54.5z" />
    <glyph glyph-name="less" unicode="&#x3c;" horiz-adv-x="630" 
d="M564 -12l-498 235v52l498 234v-90l-368 -170l368 -173v-88z" />
    <glyph glyph-name="equal" unicode="=" horiz-adv-x="630" 
d="M564 109h-496v88h496v-88zM564 302h-496v88h496v-88z" />
    <glyph glyph-name="greater" unicode="&#x3e;" horiz-adv-x="630" 
d="M564 223l-498 -235v88l368 173l-368 170v90l498 -234v-52z" />
    <glyph glyph-name="question" unicode="?" horiz-adv-x="385" 
d="M405 601q0 -49 -26 -87t-62.5 -60t-73.5 -39t-63 -35.5t-26 -38.5q0 -29 37 -40t75 -11h15l-26 -93q-52 3 -97 16.5t-81.5 49t-36.5 87.5q0 44 25 76.5t60.5 51.5t71 36t60.5 40.5t25 53.5q0 19 -17.5 31t-36.5 12q-41 0 -91 -23l-25 84q70 20 126 20q66 0 116.5 -34
t50.5 -97zM96 -15q-31 0 -54 23t-23 54q0 32 22.5 55t54.5 23t55 -23t23 -55t-23 -54.5t-55 -22.5z" />
    <glyph glyph-name="at" unicode="@" horiz-adv-x="832" 
d="M451 -69l15 -53q-46 -13 -99 -13q-140 0 -231 93.5t-91 233.5q0 79 29 155t80 137.5t129.5 99.5t170.5 38q141 0 237 -84t96 -227q0 -101 -54.5 -180.5t-141.5 -79.5q-77 0 -108 56q-21 -27 -53 -42t-61 -15q-63 0 -95.5 45t-32.5 111q0 82 57 158t148 76q53 0 86 -37
l17 30h47q-38 -237 -38 -271q0 -55 37 -55q56 0 92 62.5t36 141.5q0 118 -77 187.5t-192 69.5q-102 0 -183 -56.5t-121.5 -141.5t-40.5 -178q0 -117 73 -195t185 -78q42 0 84 12zM501 349q-30 29 -61 29q-35 0 -61 -33t-36.5 -70.5t-10.5 -68.5q0 -94 54 -94q27 0 47 21
t33 60t20.5 73.5t14.5 82.5z" />
    <glyph glyph-name="A" unicode="A" 
d="M545 0h-140l-41 210h-196l-99 -210h-124l344 732h108zM343 308q-5 25 -34 250q-8 -20 -40.5 -110.5t-54.5 -139.5h129z" />
    <glyph glyph-name="B" unicode="B" horiz-adv-x="566" 
d="M549 589q0 -72 -47.5 -125.5t-118.5 -64.5q66 -11 108 -57.5t42 -112.5q0 -110 -82.5 -169.5t-196.5 -59.5h-243l90 671l-6 61h248q39 0 72.5 -6t65.5 -21t50 -44.5t18 -71.5zM408 559q0 74 -87 74h-94l-25 -187h97q47 0 78 33t31 80zM397 239q0 53 -39 80.5t-95 27.5
h-74l-33 -248h102q61 0 100 39.5t39 100.5z" />
    <glyph glyph-name="C" unicode="C" horiz-adv-x="587" 
d="M622 675l-81 -92q-22 31 -62.5 48.5t-80.5 17.5q-60 0 -107.5 -31t-75 -80.5t-41.5 -105.5t-14 -112q0 -57 14 -108t53 -90.5t97 -39.5q88 0 172 75l47 -95q-120 -74 -239 -74q-139 0 -213 82t-74 223q0 87 26.5 167.5t74.5 144.5t123 102.5t165 38.5q58 0 120 -18
t96 -53z" />
    <glyph glyph-name="D" unicode="D" horiz-adv-x="664" 
d="M647 435q0 -116 -45.5 -214t-135.5 -159.5t-208 -61.5h-247l90 671l-7 61h263q138 0 214 -79.5t76 -217.5zM505 423q0 92 -41 151t-129 59h-108l-71 -534h110q61 0 108.5 29.5t75 78t41.5 104t14 112.5z" />
    <glyph glyph-name="E" unicode="E" horiz-adv-x="507" 
d="M532 732l-13 -99h-293l-28 -207h224l-13 -99h-224l-30 -228h292l-13 -99h-423l90 671l-7 61h438z" />
    <glyph glyph-name="F" unicode="F" horiz-adv-x="467" 
d="M502 732l-13 -99h-262l-28 -207h203l-13 -99h-203l-44 -327h-131l90 671l-6 61h407z" />
    <glyph glyph-name="G" unicode="G" horiz-adv-x="668" 
d="M655 665l-80 -82q-45 39 -78 53t-88 14q-65 0 -115 -31.5t-78.5 -82.5t-43 -109t-14.5 -119q0 -56 13 -103.5t50 -83.5t95 -36q68 0 114.5 45.5t55.5 109.5l8 62h-144l11 88h277q-38 -260 -49 -391h-68l-21 76q-53 -45 -103 -65.5t-116 -20.5q-130 0 -197 81t-67 214
q0 92 27 174.5t77 146.5t128 101.5t173 37.5q64 0 131.5 -19.5t101.5 -59.5z" />
    <glyph glyph-name="H" unicode="H" horiz-adv-x="674" 
d="M663 732l-98 -732h-132l44 327h-292l-43 -327h-131l90 671l-6 61h144l-41 -306h292l41 306h132z" />
    <glyph glyph-name="I" unicode="I" horiz-adv-x="250" 
d="M239 732l-97 -732h-131l90 671l-6 61h144z" />
    <glyph glyph-name="J" unicode="J" horiz-adv-x="254" 
d="M243 732l-86 -651q-6 -44 -9.5 -67.5t-12.5 -62t-19 -59.5t-28 -48t-41 -40.5t-56 -23.5t-75 -10q-78 0 -142 44l62 83q32 -36 74 -36q29 0 50.5 18.5t33.5 52.5t17 57.5t10 57.5l84 624l-6 61h144z" />
    <glyph glyph-name="K" unicode="K" horiz-adv-x="553" 
d="M588 732l-258 -345l185 -387h-154l-169 377l-50 -377h-131l90 671l-6 61h144l-47 -349l255 349h141z" />
    <glyph glyph-name="L" unicode="L" horiz-adv-x="459" 
d="M428 99l-13 -99h-404l90 671l-5 61h144l-84 -633h272z" />
    <glyph glyph-name="M" unicode="M" horiz-adv-x="830" 
d="M819 732l-98 -732h-131l66 496q2 14 7.5 39t6.5 33q-20 -48 -32 -72l-236 -497h-88l-109 497q-12 55 -14 72q-3 -61 -4 -72l-67 -496h-109l89 671l-5 61h192l92 -421q7 -29 11 -121q23 78 42 117l200 425h187z" />
    <glyph glyph-name="N" unicode="N" horiz-adv-x="682" 
d="M671 732l-99 -737h-107l-245 502q-6 12 -31 67q0 -7 -0.5 -21t-1 -25.5t-1.5 -20.5l-67 -497h-108l89 671l-5 61h159l216 -439q3 -6 7.5 -16t10.5 -25t11 -25q1 10 1.5 36.5t2.5 40.5l57 428h111z" />
    <glyph glyph-name="O" unicode="O" horiz-adv-x="707" 
d="M690 439q0 -87 -26.5 -167.5t-74.5 -143.5t-123.5 -101t-165.5 -38q-136 0 -209.5 84t-73.5 222q0 117 43.5 217.5t132.5 165.5t208 65q139 0 214 -82t75 -222zM549 434q0 92 -37 153t-122 61q-50 0 -91 -23t-66.5 -59.5t-43 -83.5t-25 -93t-7.5 -91q0 -91 37 -152.5
t122 -61.5q62 0 109.5 34t73 88.5t38 112.5t12.5 115z" />
    <glyph glyph-name="P" unicode="P" horiz-adv-x="539" 
d="M541 541q0 -120 -79 -183.5t-204 -63.5h-77l-39 -294h-131l90 671l-6 61h221q98 0 161.5 -47t63.5 -144zM402 538q0 46 -24 70.5t-70 24.5h-81l-32 -242h80q59 0 93 43.5t34 103.5z" />
    <glyph glyph-name="Q" unicode="Q" horiz-adv-x="707" 
d="M1070 -160q-54 -19 -85.5 -29t-78.5 -18.5t-92 -8.5q-53 0 -119.5 20t-113 42t-120.5 60t-104 52q-13 6 -29.5 11.5t-27.5 8.5t-31 7.5t-29 6.5q-223 54 -223 298q0 117 44 219t134.5 168.5t209.5 66.5q137 0 211 -86t74 -225q0 -127 -57.5 -238.5t-164.5 -167.5
q78 -43 128 -68.5t130.5 -53t139.5 -27.5q60 0 180 35zM551 432q0 57 -13 103t-50.5 79.5t-95.5 33.5q-60 0 -107.5 -35t-73.5 -90t-39.5 -113t-13.5 -113q0 -90 37.5 -151t121.5 -61q61 0 108 34t73.5 87.5t39.5 111.5t13 114z" />
    <glyph glyph-name="R" unicode="R" horiz-adv-x="565" 
d="M543 552q0 -75 -49 -130.5t-125 -74.5l166 -347h-148l-149 326h-52l-44 -326h-131l90 671l-6 61h239q89 0 149 -45.5t60 -134.5zM404 549q0 40 -27.5 61.5t-68.5 21.5h-82l-27 -208h60q66 0 105.5 30t39.5 95z" />
    <glyph glyph-name="S" unicode="S" horiz-adv-x="495" 
d="M509 684l-59 -92q-22 24 -65 40t-78 16q-45 0 -77 -26.5t-32 -71.5q0 -29 19.5 -53.5t48.5 -40t63 -36.5t63 -42t48.5 -57t19.5 -81q0 -113 -80.5 -182.5t-196.5 -69.5q-130 0 -219 61l63 108q66 -73 157 -73q54 0 93.5 33.5t39.5 86.5q0 36 -27 64t-65.5 49t-77.5 44
t-66 62t-27 91q0 115 79.5 172.5t199.5 57.5q41 0 94.5 -17.5t81.5 -42.5z" />
    <glyph glyph-name="T" unicode="T" horiz-adv-x="523" 
d="M568 732l-14 -99h-195l-85 -633h-136l84 633h-192l13 99h525z" />
    <glyph glyph-name="U" unicode="U" horiz-adv-x="660" 
d="M648 732l-61 -454q-19 -140 -92.5 -214.5t-220.5 -74.5q-114 0 -176.5 57t-62.5 170q0 34 4 62l53 394l-7 60h149l-65 -489q-2 -18 -2 -27q0 -61 36 -96.5t98 -35.5q71 0 118 47t56 114l66 487h107z" />
    <glyph glyph-name="V" unicode="V" horiz-adv-x="561" 
d="M616 732l-338 -733h-102l-141 733h139l79 -418q3 -16 6 -44.5t4 -49.5l1 -20q26 92 47 137l181 395h124z" />
    <glyph glyph-name="W" unicode="W" horiz-adv-x="875" 
d="M930 732l-284 -734h-134l-52 416l-4 112q-32 -111 -53 -165l-143 -363h-132l-93 734h137l53 -423l9 -127q24 110 46 164l155 386h119l54 -425l6 -125q31 110 52 164l152 386h112z" />
    <glyph glyph-name="X" unicode="X" horiz-adv-x="566" 
d="M616 732l-246 -341l167 -391h-151l-113 260l-177 -260h-146l274 377l-154 355h151l98 -222l152 222h145z" />
    <glyph glyph-name="Y" unicode="Y" horiz-adv-x="523" 
d="M578 732l-263 -405l-44 -327h-130l43 330l-149 402h146l96 -260l171 260h130z" />
    <glyph glyph-name="Z" unicode="Z" horiz-adv-x="546" 
d="M561 659l-397 -560h330l-14 -99h-497v82l394 551h-296l13 99h467v-73z" />
    <glyph glyph-name="bracketleft" unicode="[" horiz-adv-x="315" 
d="M343 732l-8 -59h-94l-100 -746h94l-8 -59h-207l116 864h207z" />
    <glyph glyph-name="backslash" unicode="\" horiz-adv-x="359" 
d="M345 0h-94l-269 732h93z" />
    <glyph glyph-name="bracketright" unicode="]" horiz-adv-x="311" 
d="M310 732l-115 -864h-207l8 59h94l99 746h-93l7 59h207z" />
    <glyph glyph-name="asciicircum" unicode="^" horiz-adv-x="618" 
d="M570 0h-91l-170 368l-173 -368h-88l235 498h52z" />
    <glyph glyph-name="underscore" unicode="_" horiz-adv-x="495" 
d="M509 -47l-13 -96h-508l13 96h508z" />
    <glyph glyph-name="grave" unicode="`" horiz-adv-x="248" 
d="M258 590h-103l-151 165h145z" />
    <glyph glyph-name="a" unicode="a" horiz-adv-x="525" 
d="M530 22q-47 -31 -106 -31q-30 0 -53 19.5t-29 48.5h-4q-53 -71 -146 -71q-85 0 -128 60.5t-43 148.5q0 78 30 148t93 117t146 47q73 0 120 -50l23 41h63l-54 -370q-2 -14 -2 -21q0 -36 25 -36q17 0 48 12zM368 387q-40 40 -86 40q-38 0 -67 -25.5t-44 -63.5t-22 -74.5
t-7 -66.5q0 -126 73 -126q36 0 63 28t44.5 79.5t27 98.5t18.5 110z" />
    <glyph glyph-name="b" unicode="b" horiz-adv-x="518" 
d="M497 301q0 -78 -37 -148t-111.5 -117t-169.5 -47q-97 0 -152 51l90 673l-5 55h127l-41 -308q53 50 128 50q86 0 128.5 -56.5t42.5 -152.5zM376 325q0 101 -71 101q-29 0 -63 -22t-58 -50l-33 -246q-1 -4 -1 -10q0 -27 42 -27q82 0 133 81t51 173z" />
    <glyph glyph-name="c" unicode="c" horiz-adv-x="421" 
d="M441 462l-69 -79q-42 44 -90 44q-36 0 -63.5 -23t-42 -58t-22 -70t-7.5 -67q0 -57 23 -95t74 -38t110 45l37 -86q-88 -47 -170 -47q-90 0 -145 59.5t-55 149.5q0 130 76 221.5t199 91.5q36 0 77.5 -13t67.5 -35z" />
    <glyph glyph-name="d" unicode="d" horiz-adv-x="529" 
d="M534 769l-92 -638q-2 -14 -2 -21q0 -36 25 -36q17 0 48 12l17 -64q-47 -31 -106 -31q-30 0 -53.5 19t-31.5 49q-53 -71 -147 -71q-85 0 -128 60.5t-43 148.5q0 123 70 217.5t189 94.5q68 0 101 -32l31 237l-5 55h127zM369 387q-40 40 -86 40q-38 0 -67 -25t-44 -62.5
t-22 -73.5t-7 -66q0 -129 73 -129q30 0 54 20.5t39 49.5t27.5 75.5t19 83t13.5 87.5z" />
    <glyph glyph-name="e" unicode="e" horiz-adv-x="462" 
d="M452 394q0 -32 -14.5 -64t-46.5 -63.5t-95 -51.5t-148 -21q4 -57 32.5 -87.5t69.5 -30.5q64 0 144 61l42 -83q-3 -3 -9 -7.5t-25.5 -15.5t-41 -20t-55 -16t-67.5 -7q-94 0 -155.5 57t-61.5 156q0 52 18.5 105.5t52.5 99.5t88 75t119 29q68 0 110.5 -30t42.5 -86zM329 392
q0 34 -39 34q-33 0 -76 -37t-59 -110q78 2 126 34.5t48 78.5z" />
    <glyph glyph-name="f" unicode="f" horiz-adv-x="301" 
d="M501 733l-49 -79q-44 40 -98 40q-32 0 -57.5 -20t-40 -53.5t-22 -62.5t-12.5 -61h118l-11 -83h-118l-62 -461q-25 -183 -182 -183q-37 0 -77.5 11t-59.5 33l48 66q12 -12 34.5 -21.5t38.5 -9.5q69 0 85 116l61 449h-79l10 83h79q8 62 23.5 109t43 87t74 61.5t109.5 21.5
q81 0 144 -43z" />
    <glyph glyph-name="g" unicode="g" horiz-adv-x="508" 
d="M500 521l-61 -455q-18 -134 -86 -215t-182 -81q-109 0 -176 56l56 81q8 -13 44 -35t70 -22q36 0 66.5 23t49 56t29 61.5t13.5 47.5h-4q-51 -50 -126 -50q-85 0 -128 60.5t-43 148.5q0 79 30 148.5t95 117t153 47.5q57 0 102 -20zM372 404q-46 22 -79 22q-39 0 -70 -25
t-47 -62t-24 -73t-8 -66q0 -129 73 -129q23 0 42 12t33 29t26 47t19.5 54.5t15 64t11 63t8.5 63.5z" />
    <glyph glyph-name="h" unicode="h" horiz-adv-x="491" 
d="M466 387q0 -27 -3 -51l-38 -282l3 -54h-126l44 324q3 18 3 36q0 54 -50 54q-22 0 -57 -18t-53 -35l-48 -361h-114l95 715l-4 54h126l-44 -319q79 61 145 61q121 0 121 -124z" />
    <glyph glyph-name="i" unicode="i" horiz-adv-x="228" 
d="M248 692q0 -34 -24.5 -61t-58.5 -27q-27 0 -45 19.5t-18 46.5q0 34 25 60.5t59 26.5q27 0 44.5 -19t17.5 -46zM207 497l-59 -442l3 -55h-124l59 443l-3 54h124z" />
    <glyph glyph-name="j" unicode="j" horiz-adv-x="228" 
d="M248 692q0 -34 -25 -61t-58 -27q-27 0 -45.5 19.5t-18.5 46.5q0 34 25.5 60.5t58.5 26.5q27 0 45 -19t18 -46zM209 497l-63 -463q-5 -35 -8.5 -56t-11 -52.5t-16.5 -50.5t-24.5 -41.5t-34.5 -34.5t-46.5 -20.5t-61.5 -8.5q-79 0 -148 42l55 80q13 -19 38 -30.5t49 -11.5
q25 0 42.5 17t27.5 48.5t14 50.5t8 49l58 429l-4 53h126z" />
    <glyph glyph-name="k" unicode="k" horiz-adv-x="454" 
d="M474 497l-179 -230l134 -267h-132l-120 255l-34 -255h-116l95 715l-5 54h129l-67 -500l167 228h128z" />
    <glyph glyph-name="l" unicode="l" horiz-adv-x="228" 
d="M247 769l-96 -715l3 -54h-127l95 715l-3 54h128z" />
    <glyph glyph-name="m" unicode="m" horiz-adv-x="758" 
d="M733 389q0 -18 -4 -50l-38 -286l3 -53h-124l44 332q2 18 2 28q0 28 -12.5 41t-40.5 13q-46 0 -103 -52l-48 -362h-115l45 335q2 16 2 24q0 55 -51 55q-24 0 -53 -16t-50 -37l-49 -361h-114l48 356q3 29 3 58q0 57 -14 79l121 15q8 -28 8 -64q80 66 154 66q88 0 108 -73
q78 73 164 73q114 0 114 -121z" />
    <glyph glyph-name="n" unicode="n" horiz-adv-x="492" 
d="M467 387q0 -27 -3 -51l-38 -282l3 -54h-125l43 324q3 18 3 36q0 54 -50 54q-22 0 -57.5 -18t-52.5 -35l-49 -361h-114l48 356q3 29 3 58q0 57 -14 79l121 15q8 -28 8 -64q81 67 153 67q121 0 121 -124z" />
    <glyph glyph-name="o" unicode="o" horiz-adv-x="508" 
d="M487 295q0 -78 -32 -147.5t-94.5 -114.5t-141.5 -45q-93 0 -145.5 60t-52.5 155q0 121 75 214t193 93q93 0 145.5 -60t52.5 -155zM362 305q0 123 -84 123q-36 0 -63.5 -24.5t-41.5 -62.5t-20.5 -74.5t-6.5 -69.5q0 -129 84 -129q37 0 65 25t41.5 64t19.5 76t6 72z" />
    <glyph glyph-name="p" unicode="p" horiz-adv-x="526" 
d="M505 301q0 -123 -70 -217.5t-189 -94.5q-68 0 -101 32l-25 -191l5 -55h-127l78 581q4 25 4 57q0 53 -13 79l117 15q8 -28 10 -60q23 28 62.5 45.5t77.5 17.5q85 0 128 -60.5t43 -148.5zM383 297q0 129 -73 129q-23 0 -42 -11t-32.5 -26.5t-25.5 -43.5t-19 -50.5
t-14.5 -60.5t-11 -61t-8.5 -62q40 -40 86 -40q30 0 55 17t40.5 42t26 57t14.5 59.5t4 50.5z" />
    <glyph glyph-name="q" unicode="q" horiz-adv-x="511" 
d="M501 537l-93 -706l5 -55h-127l35 263q-52 -51 -129 -51q-85 0 -128 60.5t-43 148.5q0 78 30 148t93 117t146 47q72 0 121 -49l43 77h47zM368 387q-40 40 -86 40q-38 0 -67 -25.5t-44 -63.5t-22 -74.5t-7 -66.5q0 -126 73 -126q36 0 63 28t44.5 79.5t27 98.5t18.5 110z
" />
    <glyph glyph-name="r" unicode="r" horiz-adv-x="327" 
d="M365 507l-35 -119h-4q-75 0 -145 -92l-40 -296h-114l48 363q4 26 4 50q0 58 -16 84l122 10q10 -34 10 -76q0 -20 -1 -29q31 43 77.5 74t93.5 31z" />
    <glyph glyph-name="s" unicode="s" horiz-adv-x="371" 
d="M379 479l-52 -84q-32 31 -89 31q-30 0 -51 -14.5t-21 -42.5q0 -21 18.5 -36.5t45 -27t53 -26t45 -41.5t18.5 -66q0 -88 -60.5 -136t-148.5 -48q-84 0 -152 44l52 82q65 -43 102 -43q33 0 56.5 21t23.5 55q0 27 -28.5 47t-62 32t-62 41.5t-28.5 74.5q0 83 59.5 125.5
t145.5 42.5q78 0 136 -31z" />
    <glyph glyph-name="t" unicode="t" horiz-adv-x="315" 
d="M335 497l-12 -83h-115l-36 -275q-2 -18 -2 -28q0 -39 33 -39q35 0 75 10l11 -69q-71 -23 -134 -23q-55 0 -79.5 23t-24.5 69q0 16 3 34l40 298h-69l11 83h69l19 136h127l-31 -136h115z" />
    <glyph glyph-name="u" unicode="u" horiz-adv-x="499" 
d="M504 22q-47 -31 -108 -31q-30 0 -53 19t-29 49h-4q-25 -33 -69 -51.5t-88 -18.5q-126 0 -126 122q0 17 3 35l40 307l-5 44h127l-43 -328q-2 -18 -2 -27q0 -58 49 -58q31 0 56 23t40 60.5t24 71.5t13 68l19 146l-6 44h128l-54 -367q-2 -14 -2 -21q0 -36 25 -36q17 0 48 12
z" />
    <glyph glyph-name="v" unicode="v" horiz-adv-x="419" 
d="M459 497l-232 -501h-106l-106 501h122l53 -262q6 -29 10 -84q20 71 26 84l116 262h117z" />
    <glyph glyph-name="w" unicode="w" horiz-adv-x="638" 
d="M678 497l-219 -501h-99l-38 262l-2 77q-10 -54 -17 -69l-115 -270h-99l-74 501h122l33 -231q2 -16 2 -48q0 -29 -1 -45q13 58 24 85l101 239h112l33 -231q2 -14 2 -52q0 -29 -1 -41q16 66 24 85l97 239h115z" />
    <glyph glyph-name="x" unicode="x" horiz-adv-x="465" 
d="M484 497l-179 -230l134 -267h-133l-76 165l-120 -165h-130l207 264l-120 233h132l61 -132l95 132h129z" />
    <glyph glyph-name="y" unicode="y" horiz-adv-x="419" 
d="M459 497l-233 -500q-18 -38 -31 -63t-38.5 -59.5t-51.5 -54.5t-66 -35t-86 -15q-40 0 -75 10t-50 20l-15 10l51 77q39 -37 88 -37q31 0 58 14t48.5 41t34 46.5t27.5 49.5l-105 496h122q48 -232 55 -276q1 -7 4 -75q18 60 24 75q23 55 70.5 155t56.5 121h112z" />
    <glyph glyph-name="z" unicode="z" horiz-adv-x="418" 
d="M418 435l-273 -351h239l-11 -84h-383v61l270 353h-201l11 83h348v-62z" />
    <glyph glyph-name="braceleft" unicode="{" horiz-adv-x="321" 
d="M357 739l-9 -62q-49 0 -68.5 -17t-26.5 -67l-22 -166q-13 -102 -69 -131q37 -23 37 -87q0 -22 -3 -43l-22 -166q-3 -22 -3 -38q0 -28 14 -37t52 -9h10l-9 -63h-43q-132 0 -132 128q0 21 3 43l22 159q1 5 1 16q0 27 -12.5 46.5t-38.5 20.5l8 61q60 0 73 89l20 153
q10 78 50.5 124t111.5 46h56z" />
    <glyph glyph-name="bar" unicode="|" horiz-adv-x="235" 
d="M168 -116h-98v861h98v-861z" />
    <glyph glyph-name="braceright" unicode="}" horiz-adv-x="321" 
d="M308 328l-8 -61q-30 0 -49 -25.5t-23 -58.5l-21 -159q-24 -171 -174 -171h-43l8 62q54 0 71 15t24 70l22 166q13 101 69 130q-37 23 -37 87q0 23 3 44l22 166q2 11 2 30q0 30 -15.5 41.5t-53.5 11.5h-6l9 63h55q120 0 120 -129q0 -20 -3 -41l-21 -153q-1 -7 -1 -23
q0 -64 50 -65z" />
    <glyph glyph-name="asciitilde" unicode="~" horiz-adv-x="559" 
d="M524 299q-25 -41 -65 -73t-79 -32q-40 0 -105.5 35t-100.5 35q-24 0 -44 -23t-32 -52l-63 55q20 45 58.5 77.5t80.5 32.5q46 0 115 -35t91 -35q45 0 84 73z" />
    <glyph glyph-name="uni00A0" unicode="&#xa0;" horiz-adv-x="234" 
 />
    <glyph glyph-name="exclamdown" unicode="&#xa1;" horiz-adv-x="245" 
d="M184 371l-36 -467q-2 -18 -9 -26t-25 -8q-8 0 -79 11q-35 6 -35 32q0 5 2 13l94 457zM160 454q-31 0 -54 23t-23 54q0 32 22.5 55t54.5 23t55 -23t23 -55t-23 -54.5t-55 -22.5z" />
    <glyph glyph-name="cent" unicode="&#xa2;" horiz-adv-x="421" 
d="M440 462l-67 -76q-44 39 -91 39q-44 0 -76.5 -39t-45.5 -86.5t-13 -90.5q0 -58 23.5 -97.5t77.5 -39.5q43 0 106 49l36 -86q-87 -47 -168 -47h-14l-26 -116h-69l47 123q-71 17 -105.5 70.5t-34.5 130.5q0 123 68.5 212t187.5 101l24 113h70l-41 -114q66 -9 111 -46z" />
    <glyph glyph-name="sterling" unicode="&#xa3;" horiz-adv-x="514" 
d="M565 629l-101 -54q-25 73 -84 73q-39 0 -63 -27t-30 -69l-15 -111h123l-13 -99h-124l-32 -242h279l-14 -100h-495l14 100h88l32 242h-73l13 99h74l13 97q12 97 77.5 151.5t159.5 54.5q117 0 171 -115z" />
    <glyph glyph-name="currency" unicode="&#xa4;" horiz-adv-x="536" 
d="M427 104l-52 51q-48 -34 -109 -34t-109 34l-51 -51l-69 69l56 55q-25 48 -25 104t25 104l-56 57l69 69l52 -53q48 34 108 34t108 -34l53 53l69 -69l-57 -57q26 -50 26 -104t-26 -103l57 -56zM266 205q42 0 73 33t31 96q0 53 -28 89t-75 36q-46 0 -75 -36t-29 -91
q0 -60 32 -93.5t71 -33.5z" />
    <glyph glyph-name="yen" unicode="&#xa5;" horiz-adv-x="502" 
d="M499 497l-120 -177h95l-7 -49h-123l-37 -55v-5h153l-7 -49h-153l-21 -162h-115l21 162h-161l7 49h161v5l-25 55h-129l7 49h101l-79 177h139l67 -165l109 165h117z" />
    <glyph glyph-name="brokenbar" unicode="&#xa6;" horiz-adv-x="238" 
d="M168 392h-98v353h98v-353zM168 -116h-98v353h98v-353z" />
    <glyph glyph-name="section" unicode="&#xa7;" horiz-adv-x="454" 
d="M497 754l-29 -78q-36 18 -71 18q-67 0 -67 -116q0 -39 14 -160q27 -268 27 -358q0 -70 -36.5 -112t-104.5 -51q-11 -63 -57 -95t-112 -32q-53 0 -95 21l32 75q44 -17 66 -17q62 0 62 97q0 41 -3 91.5t-6 79t-10 96t-9 82.5q-11 112 -11 154q0 186 145 200q27 126 169 126
q39 0 96 -21zM264 71q0 88 -18 252.5t-21 235.5q-33 -24 -33 -106q0 -26 13 -166q25 -252 27 -305q32 21 32 89z" />
    <glyph glyph-name="dieresis" unicode="&#xa8;" horiz-adv-x="276" 
d="M219 566q-23 0 -40 17t-17 40t17 40t40 17q24 0 41 -16.5t17 -40.5t-17 -40.5t-41 -16.5zM98 666q18 -18 18 -43t-17.5 -43t-43.5 -18t-43.5 18t-17.5 43t17.5 43t43.5 18t43 -18z" />
    <glyph glyph-name="copyright" unicode="&#xa9;" horiz-adv-x="635" 
d="M316 -27q-115 0 -196 81t-81 196t81 196t196 81q114 0 195.5 -81.5t81.5 -195.5t-81.5 -195.5t-195.5 -81.5zM483 82q70 70 70 168t-69.5 167.5t-167.5 69.5t-167.5 -69.5t-69.5 -167.5t69.5 -167.5t167.5 -69.5t167 69zM450 386l-51 -56q-32 27 -61 27q-40 0 -62 -43.5
t-22 -88.5q0 -82 63 -82q36 0 71 33l29 -64q-67 -32 -121 -32q-64 0 -100 36t-36 100q0 87 53.5 146t139.5 59q54 0 97 -35z" />
    <glyph glyph-name="ordfeminine" unicode="&#xaa;" horiz-adv-x="371" 
d="M370 391q-35 -21 -71 -21q-20 0 -35 13t-19 33h-4q-36 -48 -96 -48q-56 0 -85 40.5t-29 98.5q0 82 48.5 145t130.5 63q47 0 80 -33l15 27h42l-36 -246q-1 -5 -1 -14q0 -24 16 -24q11 0 32 8zM300 310l-8 -58h-227l8 58h227zM262 634q-27 26 -57 26q-33 0 -55.5 -29.5
t-30 -62t-7.5 -61.5q0 -83 48 -83q24 0 42 18.5t29.5 53t18 65t12.5 73.5z" />
    <glyph glyph-name="guillemotleft" unicode="&#xab;" horiz-adv-x="454" 
d="M274 490l-141 -158l99 -159l-77 -11l-132 170l176 172zM444 490l-141 -158l99 -159l-77 -11l-132 170l176 172z" />
    <glyph glyph-name="logicalnot" unicode="&#xac;" horiz-adv-x="638" 
d="M568 79h-86v188h-412v83h498v-271z" />
    <glyph glyph-name="uni00AD" unicode="&#xad;" horiz-adv-x="313" 
d="M270 210h-221v95h221v-95z" />
    <glyph glyph-name="registered" unicode="&#xae;" horiz-adv-x="459" 
d="M380 759q62 -62 62 -149t-62 -149t-149 -62t-148.5 62t-61.5 149t61.5 149t148.5 62t149 -62zM407 610q0 72 -51.5 123.5t-124.5 51.5q-72 0 -123.5 -51t-51.5 -124t51.5 -124t123.5 -51q73 0 124.5 51t51.5 124zM337 497h-72l-51 96h-11l-13 -96h-60l33 235h93
q74 0 74 -55q0 -52 -52 -73zM269 668q0 17 -27 17h-26l-6 -45h19q40 0 40 28z" />
    <glyph glyph-name="macron" unicode="&#xaf;" horiz-adv-x="276" 
d="M302 595h-330v64h330v-64z" />
    <glyph glyph-name="degree" unicode="&#xb0;" horiz-adv-x="388" 
d="M340 593q0 -61 -42.5 -103t-103.5 -42q-60 0 -102.5 42.5t-42.5 102.5t42.5 102.5t102.5 42.5t103 -42.5t43 -102.5zM250 536q23 24 23 57t-23 57t-56 24t-55.5 -24t-22.5 -57t22.5 -57t55.5 -24t56 24z" />
    <glyph glyph-name="plusminus" unicode="&#xb1;" horiz-adv-x="632" 
d="M565 267h-205v-147h-88v146h-205v85h205v146h88v-145h205v-85zM565 1h-496v88h496v-88z" />
    <glyph glyph-name="twosuperior" unicode="&#xb2;" horiz-adv-x="455" 
d="M351 438h-326v51q11 8 29.5 22.5t65 55.5t82 78t65 82.5t29.5 77.5q0 23 -14.5 37t-37.5 14q-25 0 -56.5 -14.5t-50.5 -29.5l-19 -14l-33 66q9 8 25.5 20t66 31.5t97.5 19.5q67 0 101 -31t34 -81q0 -49 -28.5 -99.5t-73 -91.5t-70.5 -61t-50 -35l-4 -3h206z" />
    <glyph glyph-name="threesuperior" unicode="&#xb3;" horiz-adv-x="455" 
d="M37 425l-5 69q116 6 182 40.5t66 86.5q0 51 -91 51l-33 -2l-3 58q138 28 138 97q0 14 -12 22.5t-30 8.5q-65 0 -130 -50l-33 61q38 29 90.5 48.5t97.5 19.5q52 0 88 -19t36 -62q0 -42 -26 -71.5t-70 -44.5q88 -17 88 -96q0 -21 -6.5 -44t-29 -54t-59 -55t-103.5 -42.5
t-155 -21.5z" />
    <glyph glyph-name="acute" unicode="&#xb4;" horiz-adv-x="235" 
d="M298 755l-174 -165h-103l132 165h145z" />
    <glyph glyph-name="mu" unicode="&#xb5;" horiz-adv-x="584" 
d="M547 18q-6 -2 -34 -10.5t-46 -12.5t-34 -4q-28 0 -45.5 18.5t-19.5 47.5q-66 -68 -126 -68q-33 0 -60 15l-26 -191h-117l84 631l-3 53h125l-42 -311q-3 -18 -3 -37q0 -66 52 -66q57 0 106 47l42 314l-4 53h126l-48 -366q-2 -12 -2 -23q0 -29 18 -29q5 0 47 12z" />
    <glyph glyph-name="paragraph" unicode="&#xb6;" horiz-adv-x="546" 
d="M523 764l-8 -54h-56l-108 -773q-6 -45 -42.5 -78t-81.5 -33q-5 0 -19 2q-40 -59 -107 -59q-41 0 -68.5 27t-27.5 68q0 51 38.5 89t89.5 38l-8 -54q-26 0 -46 -19.5t-20 -45.5q0 -21 14.5 -35t35.5 -14q24 0 42.5 17t21.5 40l69 498q-71 0 -117.5 44.5t-46.5 115.5
q0 106 72.5 166t180.5 60h192zM405 710h-61l-116 -830h4q24 0 43 17t22 40z" />
    <glyph glyph-name="periodcentered" unicode="&#xb7;" horiz-adv-x="293" 
d="M144 181q-31 0 -54 23t-23 54q0 32 22.5 55t54.5 23t55 -23t23 -55t-23 -54.5t-55 -22.5z" />
    <glyph glyph-name="cedilla" unicode="&#xb8;" horiz-adv-x="229" 
d="M209 -112q0 -85 -158 -108l-16 62q2 0 11.5 1.5t14.5 2.5t14 3t14 4.5t11 6.5t8.5 9.5t2.5 12.5q0 19 -57 36l65 95h76l-36 -55q50 -25 50 -70z" />
    <glyph glyph-name="onesuperior" unicode="&#xb9;" horiz-adv-x="455" 
d="M375 438h-337l10 79h127l40 303l-124 -35l-15 70q92 28 179 69h81l-53 -407h102z" />
    <glyph glyph-name="ordmasculine" unicode="&#xba;" horiz-adv-x="355" 
d="M335 573q0 -85 -50 -146t-133 -61q-63 0 -98.5 38.5t-35.5 103.5q0 84 50 145.5t132 61.5q64 0 99.5 -39t35.5 -103zM258 310l-8 -58h-227l8 58h227zM250 576q0 84 -58 84q-33 0 -54.5 -29t-28.5 -61.5t-7 -64.5q0 -84 59 -84q32 0 53.5 28.5t28.5 61t7 65.5z" />
    <glyph glyph-name="guillemotright" unicode="&#xbb;" horiz-adv-x="454" 
d="M269 332l-180 -170l-74 11l145 159l-98 158l79 14zM437 332l-180 -170l-74 11l145 159l-98 158l79 14z" />
    <glyph glyph-name="onequarter" unicode="&#xbc;" horiz-adv-x="1049" 
d="M880 0h-108l13 101h-207v52l259 333h107l-41 -306h68l-11 -79h-67zM795 180l16 117q1 9 5.5 31t9.5 40l4 18q-23 -53 -61 -103l-79 -103h105zM399 -27h-79l399 780h80zM406 246h-337l10 79h127l40 303l-124 -35l-15 70q92 28 179 69h81l-53 -407h102z" />
    <glyph glyph-name="onehalf" unicode="&#xbd;" horiz-adv-x="1097" 
d="M961 0h-323v52l10 8q53 43 104.5 89.5t102.5 110t51 101.5q0 22 -15 35t-38 13q-54 0 -123 -52l-33 69q96 71 192 71q61 0 100 -28t39 -85q0 -73 -64 -148.5t-145 -129.5h182zM400 -27h-79l399 780h80zM407 246h-337l10 79h127l40 303l-124 -35l-15 70q92 28 179 69h81
l-53 -407h102z" />
    <glyph glyph-name="threequarters" unicode="&#xbe;" horiz-adv-x="1004" 
d="M751 180l16 117l20 89q-25 -54 -62 -103l-78 -103h104zM68 233l-6 69q118 6 183 40t65 87q0 51 -90 51l-33 -2l-3 58q138 29 138 96q0 15 -12 23.5t-31 8.5q-30 0 -66.5 -14.5t-62.5 -35.5l-33 61q39 29 91.5 48.5t97.5 19.5q52 0 87 -18.5t35 -61.5q0 -42 -26 -72
t-68 -45q86 -17 86 -96q0 -21 -6 -44t-28.5 -54t-58.5 -54.5t-103.5 -42.5t-155.5 -22zM917 101h-68l-13 -101h-108l13 101h-207v52l259 333h107l-41 -306h69zM356 -27h-79l399 780h80z" />
    <glyph glyph-name="questiondown" unicode="&#xbf;" horiz-adv-x="418" 
d="M378 250q0 -44 -25 -76.5t-60.5 -51.5t-71 -36t-60.5 -40.5t-25 -53.5q0 -19 17.5 -31t36.5 -12q47 0 91 23l25 -84q-70 -20 -126 -20q-66 0 -116.5 34t-50.5 97q0 49 26 87t62.5 60t73.5 39t63 35.5t26 38.5q0 19 -21 31.5t-43 16t-43 3.5h-20l26 93q52 -3 97 -16.5
t81.5 -49t36.5 -87.5zM315 461q-31 0 -54 23t-23 54q0 32 22.5 55t54.5 23t55 -23t23 -55t-23 -54.5t-55 -22.5z" />
    <glyph glyph-name="Agrave" unicode="&#xc0;" 
d="M406 771h-103l-151 165h145zM545 0h-140l-41 210h-196l-99 -210h-124l344 732h108zM343 308q-5 25 -34 250q-8 -20 -40.5 -110.5t-54.5 -139.5h129z" />
    <glyph glyph-name="Aacute" unicode="&#xc1;" 
d="M554 936l-174 -165h-103l132 165h145zM545 0h-140l-41 210h-196l-99 -210h-124l344 732h108zM343 308q-5 25 -34 250q-8 -20 -40.5 -110.5t-54.5 -139.5h129z" />
    <glyph glyph-name="Acircumflex" unicode="&#xc2;" 
d="M490 771h-78l-60 74l-79 -74h-76l116 145h98zM545 0h-140l-41 210h-196l-99 -210h-124l344 732h108zM343 308q-5 25 -34 250q-8 -20 -40.5 -110.5t-54.5 -139.5h129z" />
    <glyph glyph-name="Atilde" unicode="&#xc3;" 
d="M518 839q-2 -3 -5 -8t-14.5 -18t-24.5 -23t-34 -18t-43 -8q-30 0 -71.5 14.5t-60.5 14.5q-21 0 -52 -25l-50 27q2 3 5 8t15 18.5t26 23.5t36.5 18t47.5 8q30 0 70 -14t53 -14q19 0 56 27zM545 0h-140l-41 210h-196l-99 -210h-124l344 732h108zM343 308q-5 25 -34 250
q-8 -20 -40.5 -110.5t-54.5 -139.5h129z" />
    <glyph glyph-name="Adieresis" unicode="&#xc4;" 
d="M423 763q-23 0 -40 17t-17 40t17 40t40 17q24 0 41 -16.5t17 -40.5t-17 -40.5t-41 -16.5zM302 863q18 -18 18 -43t-17.5 -43t-43.5 -18t-43.5 18t-17.5 43t17.5 43t43.5 18t43 -18zM545 0h-140l-41 210h-196l-99 -210h-124l344 732h108zM343 308q-5 25 -34 250
q-8 -20 -40.5 -110.5t-54.5 -139.5h129z" />
    <glyph glyph-name="Aring" unicode="&#xc5;" 
d="M430 945q32 -31 32 -75t-32 -75.5t-76 -31.5t-75.5 31.5t-31.5 75.5t31.5 75.5t75.5 31.5t76 -32zM354 910q-17 0 -29 -12t-12 -28t12 -28.5t29 -12.5q16 0 28 12t12 29t-12 28.5t-28 11.5zM545 0h-140l-41 210h-196l-99 -210h-124l344 732h108zM343 308q-5 25 -34 250
q-8 -20 -40.5 -110.5t-54.5 -139.5h129z" />
    <glyph glyph-name="AE" unicode="&#xc6;" horiz-adv-x="862" 
d="M887 732l-14 -99h-267l-29 -207h215l-14 -99h-215l-32 -228h267l-14 -99h-405l30 210h-205l-137 -210h-122l433 670l-5 62h514zM466 633l-37 -71l-161 -254h154z" />
    <glyph glyph-name="Ccedilla" unicode="&#xc7;" 
d="M622 675l-81 -92q-22 31 -62.5 48.5t-80.5 17.5q-60 0 -107.5 -31t-75 -80.5t-41.5 -105.5t-14 -112q0 -57 14 -108t53 -90.5t97 -39.5q88 0 172 75l47 -95q-105 -64 -199 -72l-21 -32q50 -25 50 -70q0 -85 -158 -108l-16 62q2 0 11.5 1.5t14.5 2.5t14 3t14 4.5t11 6.5
t8.5 9.5t2.5 12.5q0 19 -57 36l49 72q-122 11 -186 91.5t-64 211.5q0 87 26.5 167.5t74.5 144.5t123 102.5t165 38.5q58 0 120 -18t96 -53z" />
    <glyph glyph-name="Egrave" unicode="&#xc8;" horiz-adv-x="507" 
d="M393 771h-103l-151 165h145zM532 732l-13 -99h-293l-28 -207h224l-13 -99h-224l-30 -228h292l-13 -99h-423l90 671l-7 61h438z" />
    <glyph glyph-name="Eacute" unicode="&#xc9;" horiz-adv-x="507" 
d="M547 936l-174 -165h-103l132 165h145zM532 732l-13 -99h-293l-28 -207h224l-13 -99h-224l-30 -228h292l-13 -99h-423l90 671l-7 61h438z" />
    <glyph glyph-name="Ecircumflex" unicode="&#xca;" horiz-adv-x="507" 
d="M476 771h-78l-60 74l-79 -74h-76l116 145h98zM532 732l-13 -99h-293l-28 -207h224l-13 -99h-224l-30 -228h292l-13 -99h-423l90 671l-7 61h438z" />
    <glyph glyph-name="Edieresis" unicode="&#xcb;" horiz-adv-x="507" 
d="M408 764q-23 0 -40 17t-17 40t17 40t40 17q24 0 41 -16.5t17 -40.5t-17 -40.5t-41 -16.5zM287 864q18 -18 18 -43t-17.5 -43t-43.5 -18t-43.5 18t-17.5 43t17.5 43t43.5 18t43 -18zM532 732l-13 -99h-293l-28 -207h224l-13 -99h-224l-30 -228h292l-13 -99h-423l90 671
l-7 61h438z" />
    <glyph glyph-name="Igrave" unicode="&#xcc;" horiz-adv-x="250" 
d="M241 771h-103l-151 165h145zM239 732l-97 -732h-131l90 671l-6 61h144z" />
    <glyph glyph-name="Iacute" unicode="&#xcd;" horiz-adv-x="250" 
d="M389 936l-174 -165h-103l132 165h145zM239 732l-97 -732h-131l90 671l-6 61h144z" />
    <glyph glyph-name="Icircumflex" unicode="&#xce;" horiz-adv-x="250" 
d="M324 771h-78l-60 74l-79 -74h-76l116 145h98zM239 732l-97 -732h-131l90 671l-6 61h144z" />
    <glyph glyph-name="Idieresis" unicode="&#xcf;" horiz-adv-x="250" 
d="M260 763q-23 0 -40 17t-17 40t17 40t40 17q24 0 41 -16.5t17 -40.5t-17 -40.5t-41 -16.5zM139 863q18 -18 18 -43t-17.5 -43t-43.5 -18t-43.5 18t-17.5 43t17.5 43t43.5 18t43 -18zM239 732l-97 -732h-131l90 671l-6 61h144z" />
    <glyph glyph-name="Eth" unicode="&#xd0;" horiz-adv-x="664" 
d="M258 0h-247l43 324h-78l11 88h79l34 260q0 3 -3 30t-4 30h263q139 0 215 -80t76 -217q0 -94 -35 -186t-103 -154q-103 -95 -251 -95zM155 99h111q78 0 134 49.5t80.5 120.5t24.5 153q0 93 -41 152t-129 59h-109l-29 -221h143l-12 -88h-143z" />
    <glyph glyph-name="Ntilde" unicode="&#xd1;" horiz-adv-x="682" 
d="M586 838q-2 -3 -5 -8t-14.5 -18t-24.5 -23t-34 -18t-43 -8q-30 0 -71.5 14.5t-60.5 14.5q-21 0 -52 -25l-50 27q2 3 5 8t15 18.5t26 23.5t36.5 18t47.5 8q30 0 70 -14t53 -14q19 0 56 27zM671 732l-99 -737h-107l-245 502q-6 12 -31 67q0 -7 -0.5 -21t-1 -25.5
t-1.5 -20.5l-67 -497h-108l89 671l-5 61h159l216 -439q3 -6 7.5 -16t10.5 -25t11 -25q1 10 1.5 36.5t2.5 40.5l57 428h111z" />
    <glyph glyph-name="Ograve" unicode="&#xd2;" horiz-adv-x="707" 
d="M473 771h-103l-151 165h145zM690 439q0 -87 -26.5 -167.5t-74.5 -143.5t-123.5 -101t-165.5 -38q-136 0 -209.5 84t-73.5 222q0 117 43.5 217.5t132.5 165.5t208 65q139 0 214 -82t75 -222zM549 434q0 92 -37 153t-122 61q-50 0 -91 -23t-66.5 -59.5t-43 -83.5t-25 -93
t-7.5 -91q0 -91 37 -152.5t122 -61.5q62 0 109.5 34t73 88.5t38 112.5t12.5 115z" />
    <glyph glyph-name="Oacute" unicode="&#xd3;" horiz-adv-x="707" 
d="M637 936l-174 -165h-103l132 165h145zM690 439q0 -87 -26.5 -167.5t-74.5 -143.5t-123.5 -101t-165.5 -38q-136 0 -209.5 84t-73.5 222q0 117 43.5 217.5t132.5 165.5t208 65q139 0 214 -82t75 -222zM549 434q0 92 -37 153t-122 61q-50 0 -91 -23t-66.5 -59.5t-43 -83.5
t-25 -93t-7.5 -91q0 -91 37 -152.5t122 -61.5q62 0 109.5 34t73 88.5t38 112.5t12.5 115z" />
    <glyph glyph-name="Ocircumflex" unicode="&#xd4;" horiz-adv-x="707" 
d="M562 771h-78l-60 74l-79 -74h-76l116 145h98zM690 439q0 -87 -26.5 -167.5t-74.5 -143.5t-123.5 -101t-165.5 -38q-136 0 -209.5 84t-73.5 222q0 117 43.5 217.5t132.5 165.5t208 65q139 0 214 -82t75 -222zM549 434q0 92 -37 153t-122 61q-50 0 -91 -23t-66.5 -59.5
t-43 -83.5t-25 -93t-7.5 -91q0 -91 37 -152.5t122 -61.5q62 0 109.5 34t73 88.5t38 112.5t12.5 115z" />
    <glyph glyph-name="Otilde" unicode="&#xd5;" horiz-adv-x="707" 
d="M585 839q-2 -3 -5 -8t-14.5 -18t-24.5 -23t-34 -18t-43 -8q-30 0 -71.5 14.5t-60.5 14.5q-21 0 -52 -25l-50 27q2 3 5 8t15 18.5t26 23.5t36.5 18t47.5 8q30 0 70 -14t53 -14q19 0 56 27zM690 439q0 -87 -26.5 -167.5t-74.5 -143.5t-123.5 -101t-165.5 -38
q-136 0 -209.5 84t-73.5 222q0 117 43.5 217.5t132.5 165.5t208 65q139 0 214 -82t75 -222zM549 434q0 92 -37 153t-122 61q-50 0 -91 -23t-66.5 -59.5t-43 -83.5t-25 -93t-7.5 -91q0 -91 37 -152.5t122 -61.5q62 0 109.5 34t73 88.5t38 112.5t12.5 115z" />
    <glyph glyph-name="Odieresis" unicode="&#xd6;" horiz-adv-x="707" 
d="M500 763q-23 0 -40 17t-17 40t17 40t40 17q24 0 41 -16.5t17 -40.5t-17 -40.5t-41 -16.5zM379 863q18 -18 18 -43t-17.5 -43t-43.5 -18t-43.5 18t-17.5 43t17.5 43t43.5 18t43 -18zM690 439q0 -87 -26.5 -167.5t-74.5 -143.5t-123.5 -101t-165.5 -38q-136 0 -209.5 84
t-73.5 222q0 117 43.5 217.5t132.5 165.5t208 65q139 0 214 -82t75 -222zM549 434q0 92 -37 153t-122 61q-50 0 -91 -23t-66.5 -59.5t-43 -83.5t-25 -93t-7.5 -91q0 -91 37 -152.5t122 -61.5q62 0 109.5 34t73 88.5t38 112.5t12.5 115z" />
    <glyph glyph-name="multiply" unicode="&#xd7;" horiz-adv-x="534" 
d="M474 104l-62 -62l-145 144l-145 -144l-62 62l145 144l-145 145l62 62l145 -144l145 144l62 -62l-145 -145z" />
    <glyph glyph-name="Oslash" unicode="&#xd8;" horiz-adv-x="708" 
d="M695 439q0 -87 -26.5 -167.5t-75 -143.5t-123.5 -101t-166 -38q-86 0 -150 36l-71 -91l-71 55l74 95q-64 79 -64 211q0 117 43.5 217.5t132.5 165.5t208 65q99 0 164 -41l54 68l71 -55l-58 -74q58 -77 58 -202zM498 610q-40 38 -103 38q-50 0 -91 -23t-66.5 -59.5
t-43 -83.5t-25 -93t-7.5 -91q0 -55 13 -100zM554 434q0 49 -10 89l-319 -407q38 -32 96 -32q62 0 109.5 34t73 88.5t38 112.5t12.5 115z" />
    <glyph glyph-name="Ugrave" unicode="&#xd9;" horiz-adv-x="659" 
d="M450 771h-103l-151 165h145zM648 732l-61 -454q-19 -140 -92.5 -214.5t-220.5 -74.5q-114 0 -176.5 57t-62.5 170q0 34 4 62l53 394l-7 60h149l-65 -489q-2 -18 -2 -27q0 -61 36 -96.5t98 -35.5q71 0 118 47t56 114l66 487h107z" />
    <glyph glyph-name="Uacute" unicode="&#xda;" horiz-adv-x="659" 
d="M611 936l-174 -165h-103l132 165h145zM648 732l-61 -454q-19 -140 -92.5 -214.5t-220.5 -74.5q-114 0 -176.5 57t-62.5 170q0 34 4 62l53 394l-7 60h149l-65 -489q-2 -18 -2 -27q0 -61 36 -96.5t98 -35.5q71 0 118 47t56 114l66 487h107z" />
    <glyph glyph-name="Ucircumflex" unicode="&#xdb;" horiz-adv-x="659" 
d="M537 771h-78l-60 74l-79 -74h-76l116 145h98zM648 732l-61 -454q-19 -140 -92.5 -214.5t-220.5 -74.5q-114 0 -176.5 57t-62.5 170q0 34 4 62l53 394l-7 60h149l-65 -489q-2 -18 -2 -27q0 -61 36 -96.5t98 -35.5q71 0 118 47t56 114l66 487h107z" />
    <glyph glyph-name="Udieresis" unicode="&#xdc;" horiz-adv-x="659" 
d="M476 766q-23 0 -40 17t-17 40t17 40t40 17q24 0 41 -16.5t17 -40.5t-17 -40.5t-41 -16.5zM355 866q18 -18 18 -43t-17.5 -43t-43.5 -18t-43.5 18t-17.5 43t17.5 43t43.5 18t43 -18zM648 732l-61 -454q-19 -140 -92.5 -214.5t-220.5 -74.5q-114 0 -176.5 57t-62.5 170
q0 34 4 62l53 394l-7 60h149l-65 -489q-2 -18 -2 -27q0 -61 36 -96.5t98 -35.5q71 0 118 47t56 114l66 487h107z" />
    <glyph glyph-name="Yacute" unicode="&#xdd;" horiz-adv-x="523" 
d="M536 937l-174 -165h-103l132 165h145zM578 732l-263 -405l-44 -327h-130l43 330l-149 402h146l96 -260l171 260h130z" />
    <glyph glyph-name="Thorn" unicode="&#xde;" horiz-adv-x="575" 
d="M159 0h-130l89 671q0 1 -2.5 29.5t-2.5 31.5h145l-15 -115h74q103 0 165 -42.5t62 -137.5q0 -65 -24.5 -116t-65.5 -81t-90 -45.5t-103 -15.5h-78zM197 276h80q56 0 91 41.5t35 104.5q0 45 -23.5 70.5t-69.5 25.5h-81z" />
    <glyph glyph-name="germandbls" unicode="&#xdf;" horiz-adv-x="536" 
d="M511 221q0 -100 -67.5 -166.5t-167.5 -66.5q-62 0 -120 30l48 77q43 -17 72 -17q46 0 75.5 36.5t29.5 82.5q0 36 -26 60.5t-56.5 36t-56.5 32.5t-26 50q0 28 16.5 50t40 37l47 30t40 39t16.5 55q0 24 -17 42t-41 18q-100 0 -126 -183l-68 -506q-12 -89 -62.5 -138.5
t-133.5 -49.5q-38 0 -71 11t-47 23l-13 11l47 84q36 -39 76 -39q39 0 58.5 20.5t26.5 75.5l61 450h-72l12 91h72l1 5q15 111 81.5 176.5t169.5 65.5q75 0 124.5 -35.5t49.5 -106.5q0 -44 -16 -76.5t-38.5 -49.5t-45 -28.5t-38.5 -21.5t-16 -21q0 -13 25 -26.5t55.5 -27
t55.5 -47.5t25 -83z" />
    <glyph glyph-name="agrave" unicode="&#xe0;" horiz-adv-x="525" 
d="M530 22q-47 -31 -106 -31q-30 0 -53 19.5t-29 48.5h-4q-53 -71 -146 -71q-85 0 -128 60.5t-43 148.5q0 78 30 148t93 117t146 47q73 0 120 -50l23 41h63l-54 -370q-2 -14 -2 -21q0 -36 25 -36q17 0 48 12zM368 387q-40 40 -86 40q-38 0 -67 -25.5t-44 -63.5t-22 -74.5
t-7 -66.5q0 -126 73 -126q36 0 63 28t44.5 79.5t27 98.5t18.5 110zM356 592h-103l-151 165h145z" />
    <glyph glyph-name="aacute" unicode="&#xe1;" horiz-adv-x="525" 
d="M527 757l-174 -165h-103l132 165h145zM530 22q-47 -31 -106 -31q-30 0 -53 19.5t-29 48.5h-4q-53 -71 -146 -71q-85 0 -128 60.5t-43 148.5q0 78 30 148t93 117t146 47q73 0 120 -50l23 41h63l-54 -370q-2 -14 -2 -21q0 -36 25 -36q17 0 48 12zM368 387q-40 40 -86 40
q-38 0 -67 -25.5t-44 -63.5t-22 -74.5t-7 -66.5q0 -126 73 -126q36 0 63 28t44.5 79.5t27 98.5t18.5 110z" />
    <glyph glyph-name="acircumflex" unicode="&#xe2;" horiz-adv-x="525" 
d="M468 592h-78l-60 74l-79 -74h-76l116 145h98zM530 22q-47 -31 -106 -31q-30 0 -53 19.5t-29 48.5h-4q-53 -71 -146 -71q-85 0 -128 60.5t-43 148.5q0 78 30 148t93 117t146 47q73 0 120 -50l23 41h63l-54 -370q-2 -14 -2 -21q0 -36 25 -36q17 0 48 12zM368 387
q-40 40 -86 40q-38 0 -67 -25.5t-44 -63.5t-22 -74.5t-7 -66.5q0 -126 73 -126q36 0 63 28t44.5 79.5t27 98.5t18.5 110z" />
    <glyph glyph-name="atilde" unicode="&#xe3;" horiz-adv-x="525" 
d="M503 653q-2 -3 -5 -8t-14.5 -18t-24.5 -23t-34 -18t-43 -8q-30 0 -71.5 14.5t-60.5 14.5q-21 0 -52 -25l-50 27q2 3 5 8t15 18.5t26 23.5t36.5 18t47.5 8q30 0 70 -14t53 -14q19 0 56 27zM530 22q-47 -31 -106 -31q-30 0 -53 19.5t-29 48.5h-4q-53 -71 -146 -71
q-85 0 -128 60.5t-43 148.5q0 78 30 148t93 117t146 47q73 0 120 -50l23 41h63l-54 -370q-2 -14 -2 -21q0 -36 25 -36q17 0 48 12zM368 387q-40 40 -86 40q-38 0 -67 -25.5t-44 -63.5t-22 -74.5t-7 -66.5q0 -126 73 -126q36 0 63 28t44.5 79.5t27 98.5t18.5 110z" />
    <glyph glyph-name="adieresis" unicode="&#xe4;" horiz-adv-x="525" 
d="M389 576q-23 0 -40 17t-17 40t17 40t40 17q24 0 41 -16.5t17 -40.5t-17 -40.5t-41 -16.5zM268 676q18 -18 18 -43t-17.5 -43t-43.5 -18t-43.5 18t-17.5 43t17.5 43t43.5 18t43 -18zM530 22q-47 -31 -106 -31q-30 0 -53 19.5t-29 48.5h-4q-53 -71 -146 -71
q-85 0 -128 60.5t-43 148.5q0 78 30 148t93 117t146 47q73 0 120 -50l23 41h63l-54 -370q-2 -14 -2 -21q0 -36 25 -36q17 0 48 12zM368 387q-40 40 -86 40q-38 0 -67 -25.5t-44 -63.5t-22 -74.5t-7 -66.5q0 -126 73 -126q36 0 63 28t44.5 79.5t27 98.5t18.5 110z" />
    <glyph glyph-name="aring" unicode="&#xe5;" horiz-adv-x="525" 
d="M408 744q32 -31 32 -75t-32 -75.5t-76 -31.5t-75.5 31.5t-31.5 75.5t31.5 75.5t75.5 31.5t76 -32zM332 709q-17 0 -29 -12t-12 -28t12 -28.5t29 -12.5q16 0 28 12t12 29t-12 28.5t-28 11.5zM530 22q-47 -31 -106 -31q-30 0 -53 19.5t-29 48.5h-4q-53 -71 -146 -71
q-85 0 -128 60.5t-43 148.5q0 78 30 148t93 117t146 47q73 0 120 -50l23 41h63l-54 -370q-2 -14 -2 -21q0 -36 25 -36q17 0 48 12zM368 387q-40 40 -86 40q-38 0 -67 -25.5t-44 -63.5t-22 -74.5t-7 -66.5q0 -126 73 -126q36 0 63 28t44.5 79.5t27 98.5t18.5 110z" />
    <glyph glyph-name="ae" unicode="&#xe6;" horiz-adv-x="762" 
d="M443 426q39 46 87 65t87 19q63 0 99 -29.5t36 -86.5q0 -32 -14.5 -64t-46.5 -63.5t-94.5 -51.5t-147.5 -21q4 -57 32 -87.5t69 -30.5q64 0 144 61l42 -83q-3 -3 -9 -7.5t-25.5 -15.5t-41 -20t-55 -16t-67.5 -7q-115 0 -170 84q-72 -84 -176 -84q-85 0 -128 60.5
t-43 148.5q0 78 30 148t93 117t146 47q102 0 153 -83zM629 392q0 34 -39 34q-33 0 -76 -37t-59 -110q78 2 126 34.5t48 78.5zM368 387q-40 40 -86 40q-38 0 -67 -25.5t-44 -63.5t-22 -74.5t-7 -66.5q0 -126 73 -126q36 0 63 28t44.5 79.5t27 98.5t18.5 110z" />
    <glyph glyph-name="ccedilla" unicode="&#xe7;" horiz-adv-x="421" 
d="M437 462l-69 -79q-42 44 -89 44q-36 0 -63.5 -22.5t-42.5 -58t-22 -70.5t-7 -67q0 -57 22.5 -95t73.5 -38q50 0 111 45l36 -86q-70 -37 -132 -45l-21 -32q50 -25 50 -70q0 -85 -158 -108l-16 62q2 0 11.5 1.5t14.5 2.5t14 3t14 4.5t11 6.5t8.5 9.5t2.5 12.5q0 19 -57 36
l50 73q-74 13 -118 70t-44 136q0 130 76 221.5t199 91.5q36 0 77.5 -13t67.5 -35z" />
    <glyph glyph-name="egrave" unicode="&#xe8;" horiz-adv-x="464" 
d="M452 394q0 -32 -14.5 -64t-46.5 -63.5t-95 -51.5t-148 -21q4 -57 32.5 -87.5t69.5 -30.5q64 0 144 61l42 -83q-3 -3 -9 -7.5t-25.5 -15.5t-41 -20t-55 -16t-67.5 -7q-94 0 -155.5 57t-61.5 156q0 52 18.5 105.5t52.5 99.5t88 75t119 29q68 0 110.5 -30t42.5 -86zM329 392
q0 34 -39 34q-33 0 -76 -37t-59 -110q78 2 126 34.5t48 78.5zM335 592h-103l-151 165h145z" />
    <glyph glyph-name="eacute" unicode="&#xe9;" horiz-adv-x="464" 
d="M517 757l-174 -165h-103l132 165h145zM452 394q0 -32 -14.5 -64t-46.5 -63.5t-95 -51.5t-148 -21q4 -57 32.5 -87.5t69.5 -30.5q64 0 144 61l42 -83q-3 -3 -9 -7.5t-25.5 -15.5t-41 -20t-55 -16t-67.5 -7q-94 0 -155.5 57t-61.5 156q0 52 18.5 105.5t52.5 99.5t88 75
t119 29q68 0 110.5 -30t42.5 -86zM329 392q0 34 -39 34q-33 0 -76 -37t-59 -110q78 2 126 34.5t48 78.5z" />
    <glyph glyph-name="ecircumflex" unicode="&#xea;" horiz-adv-x="464" 
d="M438 592h-78l-60 74l-79 -74h-76l116 145h98zM452 394q0 -32 -14.5 -64t-46.5 -63.5t-95 -51.5t-148 -21q4 -57 32.5 -87.5t69.5 -30.5q64 0 144 61l42 -83q-3 -3 -9 -7.5t-25.5 -15.5t-41 -20t-55 -16t-67.5 -7q-94 0 -155.5 57t-61.5 156q0 52 18.5 105.5t52.5 99.5
t88 75t119 29q68 0 110.5 -30t42.5 -86zM329 392q0 34 -39 34q-33 0 -76 -37t-59 -110q78 2 126 34.5t48 78.5z" />
    <glyph glyph-name="edieresis" unicode="&#xeb;" horiz-adv-x="464" 
d="M370 576q-23 0 -40 17t-17 40t17 40t40 17q24 0 41 -16.5t17 -40.5t-17 -40.5t-41 -16.5zM249 676q18 -18 18 -43t-17.5 -43t-43.5 -18t-43.5 18t-17.5 43t17.5 43t43.5 18t43 -18zM452 394q0 -32 -14.5 -64t-46.5 -63.5t-95 -51.5t-148 -21q4 -57 32.5 -87.5t69.5 -30.5
q64 0 144 61l42 -83q-3 -3 -9 -7.5t-25.5 -15.5t-41 -20t-55 -16t-67.5 -7q-94 0 -155.5 57t-61.5 156q0 52 18.5 105.5t52.5 99.5t88 75t119 29q68 0 110.5 -30t42.5 -86zM329 392q0 34 -39 34q-33 0 -76 -37t-59 -110q78 2 126 34.5t48 78.5z" />
    <glyph glyph-name="igrave" unicode="&#xec;" horiz-adv-x="229" 
d="M208 497l-59 -442l3 -55h-124l59 443l-3 54h124zM223 592h-103l-151 165h145z" />
    <glyph glyph-name="iacute" unicode="&#xed;" horiz-adv-x="229" 
d="M207 497l-59 -442l3 -55h-124l59 443l-3 54h124zM364 757l-174 -165h-103l132 165h145z" />
    <glyph glyph-name="icircumflex" unicode="&#xee;" horiz-adv-x="229" 
d="M300 592h-78l-60 74l-79 -74h-76l116 145h98zM207 497l-59 -442l3 -55h-124l59 443l-3 54h124z" />
    <glyph glyph-name="idieresis" unicode="&#xef;" horiz-adv-x="229" 
d="M208 497l-59 -442l3 -55h-124l59 443l-3 54h124zM239 566q-23 0 -40 17t-17 40t17 40t40 17q24 0 41 -16.5t17 -40.5t-17 -40.5t-41 -16.5zM118 666q18 -18 18 -43t-17.5 -43t-43.5 -18t-43.5 18t-17.5 43t17.5 43t43.5 18t43 -18z" />
    <glyph glyph-name="eth" unicode="&#xf0;" horiz-adv-x="536" 
d="M451 723l-94 -51q126 -190 126 -365q0 -132 -74 -225t-194 -93q-94 0 -146.5 60.5t-52.5 156.5q0 123 77 213.5t191 90.5q12 0 30 -2q-29 70 -54 111l-95 -51l-35 58l94 51q-22 30 -42 54l91 52q8 -9 23.5 -27.5t22.5 -27.5l102 55zM226 72q41 0 69 27t40.5 69t17 75
t4.5 63q0 122 -84 122q-39 0 -67 -28t-41 -69.5t-18 -74.5t-5 -58q0 -126 84 -126z" />
    <glyph glyph-name="ntilde" unicode="&#xf1;" horiz-adv-x="492" 
d="M471 653q-2 -3 -5 -8t-14.5 -18t-24.5 -23t-34 -18t-43 -8q-30 0 -71.5 14.5t-60.5 14.5q-21 0 -52 -25l-50 27q2 3 5 8t15 18.5t26 23.5t36.5 18t47.5 8q30 0 70 -14t53 -14q19 0 56 27zM467 387q0 -27 -3 -51l-38 -282l3 -54h-125l43 324q3 18 3 36q0 54 -50 54
q-22 0 -57.5 -18t-52.5 -35l-49 -361h-114l48 356q3 29 3 58q0 57 -14 79l121 15q8 -28 8 -64q81 67 153 67q121 0 121 -124z" />
    <glyph glyph-name="ograve" unicode="&#xf2;" horiz-adv-x="508" 
d="M487 295q0 -78 -32 -147.5t-94.5 -114.5t-141.5 -45q-93 0 -145.5 60t-52.5 155q0 121 75 214t193 93q93 0 145.5 -60t52.5 -155zM362 305q0 123 -84 123q-36 0 -63.5 -24.5t-41.5 -62.5t-20.5 -74.5t-6.5 -69.5q0 -129 84 -129q37 0 65 25t41.5 64t19.5 76t6 72z
M344 592h-103l-151 165h145z" />
    <glyph glyph-name="oacute" unicode="&#xf3;" horiz-adv-x="508" 
d="M511 756l-174 -165h-103l132 165h145zM487 295q0 -78 -32 -147.5t-94.5 -114.5t-141.5 -45q-93 0 -145.5 60t-52.5 155q0 121 75 214t193 93q93 0 145.5 -60t52.5 -155zM362 305q0 123 -84 123q-36 0 -63.5 -24.5t-41.5 -62.5t-20.5 -74.5t-6.5 -69.5q0 -129 84 -129
q37 0 65 25t41.5 64t19.5 76t6 72z" />
    <glyph glyph-name="ocircumflex" unicode="&#xf4;" horiz-adv-x="508" 
d="M452 591h-78l-60 74l-79 -74h-76l116 145h98zM487 295q0 -78 -32 -147.5t-94.5 -114.5t-141.5 -45q-93 0 -145.5 60t-52.5 155q0 121 75 214t193 93q93 0 145.5 -60t52.5 -155zM362 305q0 123 -84 123q-36 0 -63.5 -24.5t-41.5 -62.5t-20.5 -74.5t-6.5 -69.5
q0 -129 84 -129q37 0 65 25t41.5 64t19.5 76t6 72z" />
    <glyph glyph-name="otilde" unicode="&#xf5;" horiz-adv-x="508" 
d="M479 653q-2 -3 -5 -8t-14.5 -18t-24.5 -23t-34 -18t-43 -8q-30 0 -71.5 14.5t-60.5 14.5q-21 0 -52 -25l-50 27q2 3 5 8t15 18.5t26 23.5t36.5 18t47.5 8q30 0 70 -14t53 -14q19 0 56 27zM487 295q0 -78 -32 -147.5t-94.5 -114.5t-141.5 -45q-93 0 -145.5 60t-52.5 155
q0 121 75 214t193 93q93 0 145.5 -60t52.5 -155zM362 305q0 123 -84 123q-36 0 -63.5 -24.5t-41.5 -62.5t-20.5 -74.5t-6.5 -69.5q0 -129 84 -129q37 0 65 25t41.5 64t19.5 76t6 72z" />
    <glyph glyph-name="odieresis" unicode="&#xf6;" horiz-adv-x="508" 
d="M387 576q-23 0 -40 17t-17 40t17 40t40 17q24 0 41 -16.5t17 -40.5t-17 -40.5t-41 -16.5zM266 676q18 -18 18 -43t-17.5 -43t-43.5 -18t-43.5 18t-17.5 43t17.5 43t43.5 18t43 -18zM487 295q0 -78 -32 -147.5t-94.5 -114.5t-141.5 -45q-93 0 -145.5 60t-52.5 155
q0 121 75 214t193 93q93 0 145.5 -60t52.5 -155zM362 305q0 123 -84 123q-36 0 -63.5 -24.5t-41.5 -62.5t-20.5 -74.5t-6.5 -69.5q0 -129 84 -129q37 0 65 25t41.5 64t19.5 76t6 72z" />
    <glyph glyph-name="divide" unicode="&#xf7;" horiz-adv-x="630" 
d="M564 204h-496v88h496v-88zM315 -11q-31 0 -54 23t-23 54q0 32 22.5 55t54.5 23t55 -23t23 -55t-23 -54.5t-55 -22.5zM314 354q-31 0 -54 23t-23 54q0 32 22.5 55t54.5 23t55 -23t23 -55t-23 -54.5t-55 -22.5z" />
    <glyph glyph-name="oslash" unicode="&#xf8;" horiz-adv-x="555" 
d="M524 512l-61 -79q40 -57 40 -138q0 -78 -32 -147.5t-94.5 -114.5t-141.5 -45q-57 0 -98 23l-65 -84l-67 44l72 93q-40 57 -40 139q0 121 75 214t193 93q56 0 99 -23l53 69zM344 410q-20 18 -50 18q-36 0 -63.5 -24.5t-41.5 -62.5t-20.5 -74.5t-6.5 -69.5v-22zM378 305v18
l-183 -236q21 -19 51 -19q37 0 65 25t41.5 64t19.5 76t6 72z" />
    <glyph glyph-name="ugrave" unicode="&#xf9;" horiz-adv-x="510" 
d="M504 22q-47 -31 -108 -31q-30 0 -53 19t-29 49h-4q-25 -33 -69 -51.5t-88 -18.5q-126 0 -126 122q0 17 3 35l40 307l-5 44h127l-43 -328q-2 -9 -2 -27q0 -58 49 -58q31 0 56 23t40 60.5t24 71.5t13 68l19 146l-6 44h128l-54 -367q-2 -7 -2 -21q0 -36 25 -36q17 0 48 12z
M324 592h-103l-151 165h145z" />
    <glyph glyph-name="uacute" unicode="&#xfa;" horiz-adv-x="510" 
d="M503 756l-174 -165h-103l132 165h145zM504 22q-47 -31 -108 -31q-30 0 -53 19t-29 49h-4q-25 -33 -69 -51.5t-88 -18.5q-126 0 -126 122q0 17 3 35l40 307l-5 44h127l-43 -328q-2 -18 -2 -27q0 -58 49 -58q31 0 56 23t40 60.5t24 71.5t13 68l19 146l-6 44h128l-54 -367
q-2 -14 -2 -21q0 -36 25 -36q17 0 48 12z" />
    <glyph glyph-name="ucircumflex" unicode="&#xfb;" horiz-adv-x="510" 
d="M422 591h-78l-60 74l-79 -74h-76l116 145h98zM504 22q-47 -31 -108 -31q-30 0 -53 19t-29 49h-4q-25 -33 -69 -51.5t-88 -18.5q-126 0 -126 122q0 17 3 35l40 307l-5 44h127l-43 -328q-2 -18 -2 -27q0 -58 49 -58q31 0 56 23t40 60.5t24 71.5t13 68l19 146l-6 44h128
l-54 -367q-2 -14 -2 -21q0 -36 25 -36q17 0 48 12z" />
    <glyph glyph-name="udieresis" unicode="&#xfc;" horiz-adv-x="510" 
d="M357 576q-23 0 -40 17t-17 40t17 40t40 17q24 0 41 -16.5t17 -40.5t-17 -40.5t-41 -16.5zM236 676q18 -18 18 -43t-17.5 -43t-43.5 -18t-43.5 18t-17.5 43t17.5 43t43.5 18t43 -18zM504 22q-47 -31 -108 -31q-30 0 -53 19t-29 49h-4q-25 -33 -69 -51.5t-88 -18.5
q-126 0 -126 122q0 17 3 35l40 307l-5 44h127l-43 -328q-2 -18 -2 -27q0 -58 49 -58q31 0 56 23t40 60.5t24 71.5t13 68l19 146l-6 44h128l-54 -367q-2 -14 -2 -21q0 -36 25 -36q17 0 48 12z" />
    <glyph glyph-name="yacute" unicode="&#xfd;" horiz-adv-x="419" 
d="M469 757l-174 -165h-103l132 165h145zM459 497l-233 -500q-18 -38 -31 -63t-38.5 -59.5t-51.5 -54.5t-66 -35t-86 -15q-40 0 -75 10t-50 20l-15 10l51 77q39 -37 88 -37q31 0 58 14t48.5 41t34 46.5t27.5 49.5l-105 496h122q48 -232 55 -276q1 -7 4 -75q18 60 24 75
q23 55 70.5 155t56.5 121h112z" />
    <glyph glyph-name="thorn" unicode="&#xfe;" horiz-adv-x="558" 
d="M257 768l-41 -311q64 51 139 51q79 0 120.5 -62t41.5 -149q0 -127 -69.5 -218t-190.5 -91q-59 0 -98 30l-31 -235h-114l122 932q0 38 -3 53h124zM205 368l-22 -163q-2 -11 -2 -33q0 -45 20 -73.5t63 -28.5q36 0 62.5 25.5t39.5 62.5t19 68.5t6 54.5q0 55 -21 95t-66 40
q-53 0 -99 -48z" />
    <glyph glyph-name="ydieresis" unicode="&#xff;" horiz-adv-x="419" 
d="M330 576q-23 0 -40 17t-17 40t17 40t40 17q24 0 41 -16.5t17 -40.5t-17 -40.5t-41 -16.5zM209 676q18 -18 18 -43t-17.5 -43t-43.5 -18t-43.5 18t-17.5 43t17.5 43t43.5 18t43 -18zM459 497l-233 -500q-18 -38 -31 -63t-38.5 -59.5t-51.5 -54.5t-66 -35t-86 -15
q-40 0 -75 10t-50 20l-15 10l51 77q39 -37 88 -37q31 0 58 14t48.5 41t34 46.5t27.5 49.5l-105 496h122q48 -232 55 -276q1 -7 4 -75q18 60 24 75q23 55 70.5 155t56.5 121h112z" />
    <glyph glyph-name="dotlessi" unicode="&#x131;" horiz-adv-x="228" 
d="M207 497l-59 -442l3 -55h-124l59 443l-3 54h124z" />
    <glyph glyph-name="Lslash" unicode="&#x141;" horiz-adv-x="492" 
d="M431 0h-405l33 245l-65 -30l11 97l66 30l44 330q0 4 -2 31t-2 29h144l-43 -326l199 92l-13 -98l-199 -91l-28 -210h273z" />
    <glyph glyph-name="lslash" unicode="&#x142;" horiz-adv-x="251" 
d="M131 0h-116l36 274l-60 -28l12 97l61 28l45 344l-3 53h126l-45 -340l65 30l-13 -98l-65 -30z" />
    <glyph glyph-name="OE" unicode="&#x152;" horiz-adv-x="993" 
d="M1018 732l-13 -99h-293l-28 -207h224l-13 -99h-224l-30 -228h292l-13 -99h-423l9 68q-46 -44 -94.5 -61.5t-111.5 -17.5q-136 0 -209.5 84t-73.5 222q0 117 43.5 217.5t132.5 165.5t208 65q115 0 185 -76l9 65h423zM549 434q0 92 -37 153t-122 61q-50 0 -91 -23
t-66.5 -59.5t-43 -83.5t-25 -93t-7.5 -91q0 -91 37 -152.5t122 -61.5q62 0 109.5 34t73 88.5t38 112.5t12.5 115z" />
    <glyph glyph-name="oe" unicode="&#x153;" horiz-adv-x="797" 
d="M787 394q0 -32 -14.5 -64t-46.5 -63.5t-94.5 -51.5t-147.5 -21q4 -57 32 -87.5t69 -30.5q64 0 144 61l42 -83q-3 -3 -9 -7.5t-25.5 -15.5t-41 -20t-55 -16t-67.5 -7q-114 0 -174 77q-74 -77 -180 -77q-93 0 -145.5 60t-52.5 155q0 121 75 214t193 93q107 0 160 -79
q77 79 185 79q68 0 110.5 -30t42.5 -86zM664 392q0 34 -39 34q-33 0 -76 -37t-59 -110q78 2 126 34.5t48 78.5zM362 305q0 123 -84 123q-36 0 -63.5 -24.5t-41.5 -62.5t-20.5 -74.5t-6.5 -69.5q0 -129 84 -129q37 0 65 25t41.5 64t19.5 76t6 72z" />
    <glyph glyph-name="Scaron" unicode="&#x160;" horiz-adv-x="495" 
d="M480 917l-116 -145h-98l-79 145h78l60 -74l79 74h76zM509 684l-59 -92q-22 24 -65 40t-78 16q-45 0 -77 -26.5t-32 -71.5q0 -29 19.5 -53.5t48.5 -40t63 -36.5t63 -42t48.5 -57t19.5 -81q0 -113 -80.5 -182.5t-196.5 -69.5q-130 0 -219 61l63 108q66 -73 157 -73
q54 0 93.5 33.5t39.5 86.5q0 36 -27 64t-65.5 49t-77.5 44t-66 62t-27 91q0 115 79.5 172.5t199.5 57.5q41 0 94.5 -17.5t81.5 -42.5z" />
    <glyph glyph-name="scaron" unicode="&#x161;" horiz-adv-x="371" 
d="M392 737l-116 -145h-98l-79 145h78l60 -74l79 74h76zM379 479l-52 -84q-32 31 -89 31q-30 0 -51 -14.5t-21 -42.5q0 -21 18.5 -36.5t45 -27t53 -26t45 -41.5t18.5 -66q0 -88 -60.5 -136t-148.5 -48q-84 0 -152 44l52 82q65 -43 102 -43q33 0 56.5 21t23.5 55
q0 27 -28.5 47t-62 32t-62 41.5t-28.5 74.5q0 83 59.5 125.5t145.5 42.5q78 0 136 -31z" />
    <glyph glyph-name="Ydieresis" unicode="&#x178;" horiz-adv-x="523" 
d="M401 766q-23 0 -40 17t-17 40t17 40t40 17q24 0 41 -16.5t17 -40.5t-17 -40.5t-41 -16.5zM280 866q18 -18 18 -43t-17.5 -43t-43.5 -18t-43.5 18t-17.5 43t17.5 43t43.5 18t43 -18zM578 732l-263 -405l-44 -327h-130l43 330l-149 402h146l96 -260l171 260h130z" />
    <glyph glyph-name="Zcaron" unicode="&#x17d;" horiz-adv-x="546" 
d="M491 916l-116 -145h-98l-79 145h78l60 -74l79 74h76zM561 659l-397 -560h330l-14 -99h-497v82l394 551h-296l13 99h467v-73z" />
    <glyph glyph-name="zcaron" unicode="&#x17e;" horiz-adv-x="418" 
d="M421 737l-116 -145h-98l-79 145h78l60 -74l79 74h76zM418 435l-273 -351h239l-11 -84h-383v61l270 353h-201l11 83h348v-62z" />
    <glyph glyph-name="florin" unicode="&#x192;" horiz-adv-x="520" 
d="M670 733l-60 -79q-21 22 -41.5 31t-51.5 9q-42 0 -77.5 -37t-52.5 -76t-30 -84h118l-22 -83h-118l-127 -461q-51 -183 -208 -183q-36 0 -75.5 11t-55.5 33l58 66q11 -12 31.5 -21.5t36.5 -9.5q70 0 102 116l124 449h-79l21 83h79q17 62 39 109t55.5 87.5t82.5 61.5
t113 21q80 0 138 -43z" />
    <glyph glyph-name="circumflex" unicode="&#x2c6;" horiz-adv-x="254" 
d="M275 588h-78l-60 74l-79 -74h-76l116 145h98z" />
    <glyph glyph-name="caron" unicode="&#x2c7;" horiz-adv-x="275" 
d="M295 733l-116 -145h-98l-79 145h78l60 -74l79 74h76z" />
    <glyph glyph-name="breve" unicode="&#x2d8;" horiz-adv-x="256" 
d="M300 732q-20 -76 -60 -118t-113 -42q-63 0 -96.5 35.5t-33.5 94.5l2 30h67q6 -70 73 -70t92 70h69z" />
    <glyph glyph-name="dotaccent" unicode="&#x2d9;" horiz-adv-x="285" 
d="M187 668q18 -18 18 -43t-17.5 -43t-43.5 -18t-43.5 18t-17.5 43t17.5 43t43.5 18t43 -18z" />
    <glyph glyph-name="ring" unicode="&#x2da;" horiz-adv-x="281" 
d="M217 713q32 -31 32 -75t-32 -75.5t-76 -31.5t-75.5 31.5t-31.5 75.5t31.5 75.5t75.5 31.5t76 -32zM141 678q-17 0 -29 -12t-12 -28t12 -28.5t29 -12.5q16 0 28 12t12 29t-12 28.5t-28 11.5z" />
    <glyph glyph-name="ogonek" unicode="&#x2db;" horiz-adv-x="294" 
d="M272 14q-3 -2 -30.5 -15.5t-41.5 -22t-35 -23.5t-31 -30.5t-10 -31.5q0 -31 37 -31q31 0 88 36l16 -50q-79 -57 -150 -57q-40 0 -66 19.5t-26 57.5q0 43 39.5 81t87.5 58.5t90 27.5z" />
    <glyph glyph-name="tilde" unicode="&#x2dc;" horiz-adv-x="272" 
d="M313 652q-2 -3 -5 -8t-14.5 -18t-24.5 -23t-34 -18t-43 -8q-30 0 -71.5 14.5t-60.5 14.5q-21 0 -52 -25l-50 27q2 3 5 8t15 18.5t26 23.5t36.5 18t47.5 8q30 0 70 -14t53 -14q19 0 56 27z" />
    <glyph glyph-name="hungarumlaut" unicode="&#x2dd;" horiz-adv-x="405" 
d="M381 732l-131 -142h-93l89 142h135zM224 732l-131 -142h-93l89 142h135z" />
    <glyph glyph-name="pi" unicode="&#x3c0;" horiz-adv-x="669" 
d="M551 98l21 -67q-44 -41 -108 -41q-56 0 -82 39t-26 99q0 63 24 149t61 130h-125l-4 -27q-6 -45 -10 -70.5t-12.5 -68.5t-18 -70t-26.5 -62t-37.5 -58t-50.5 -45t-66 -36l-27 55q41 26 69.5 67.5t35.5 88.5l25 190q1 6 6 20t6 16h-11q-29 0 -54.5 -24t-35.5 -57l-61 18
q16 73 65 113t120 40h312q32 0 50.5 4t50.5 19l24 -58q-36 -45 -129 -55q-70 -172 -70 -257q0 -60 46 -60q17 0 38 8z" />
    <glyph glyph-name="endash" unicode="&#x2013;" horiz-adv-x="551" 
d="M521 305l-14 -94h-476l14 94h476z" />
    <glyph glyph-name="emdash" unicode="&#x2014;" horiz-adv-x="901" 
d="M873 305l-14 -94h-826l14 94h826z" />
    <glyph glyph-name="quoteleft" unicode="&#x2018;" horiz-adv-x="242" 
d="M209 698q-18 -14 -37 -37.5t-19 -39.5q0 -6 18 -27.5t18 -47.5q0 -34 -23.5 -56.5t-55.5 -22.5q-33 0 -55 22t-22 55q0 54 42 105.5t99 88.5z" />
    <glyph glyph-name="quoteright" unicode="&#x2019;" horiz-adv-x="242" 
d="M209 661q0 -55 -42 -106t-99 -88l-35 39q19 15 37.5 38.5t18.5 39.5q0 6 -18 27.5t-18 47.5q0 33 24 56t55 23q34 0 55.5 -22t21.5 -55z" />
    <glyph glyph-name="quotesinglbase" unicode="&#x201a;" horiz-adv-x="252" 
d="M181 62q0 -55 -43 -107t-100 -89l-33 41q56 47 56 77q0 6 -18 27.5t-18 47.5q0 34 23.5 57t55.5 23q34 0 55.5 -22.5t21.5 -54.5z" />
    <glyph glyph-name="quotedblleft" unicode="&#x201c;" horiz-adv-x="429" 
d="M206 698q-18 -14 -37 -37.5t-19 -39.5q0 -6 18 -27.5t18 -47.5q0 -34 -23.5 -56.5t-55.5 -22.5q-33 0 -55 22t-22 55q0 54 42 105.5t99 88.5zM396 698q-18 -14 -37 -37.5t-19 -39.5q0 -6 18 -27.5t18 -47.5q0 -34 -23.5 -56.5t-55.5 -22.5q-33 0 -55 22t-22 55
q0 54 42 105.5t99 88.5z" />
    <glyph glyph-name="quotedblright" unicode="&#x201d;" horiz-adv-x="432" 
d="M209 661q0 -55 -42 -106t-99 -88l-35 39q19 15 37.5 38.5t18.5 39.5q0 6 -18 27.5t-18 47.5q0 33 24 56t55 23q34 0 55.5 -22t21.5 -55zM399 661q0 -55 -42 -106t-99 -88l-35 39q19 15 37.5 38.5t18.5 39.5q0 6 -18 27.5t-18 47.5q0 33 24 56t55 23q34 0 55.5 -22
t21.5 -55z" />
    <glyph glyph-name="quotedblbase" unicode="&#x201e;" horiz-adv-x="440" 
d="M181 62q0 -55 -42 -106t-99 -88l-35 39q19 15 37.5 38.5t18.5 39.5q0 6 -18 27.5t-18 47.5q0 33 24 56t55 23q34 0 55.5 -22t21.5 -55zM371 62q0 -55 -42 -106t-99 -88l-35 39q19 15 37.5 38.5t18.5 39.5q0 6 -18 27.5t-18 47.5q0 33 24 56t55 23q34 0 55.5 -22t21.5 -55
z" />
    <glyph glyph-name="dagger" unicode="&#x2020;" horiz-adv-x="490" 
d="M455 481l-67 -51l-110 22l5 -143l-92 -447h-44l25 447l43 143l-114 -22l-55 55l70 54l107 -25l-6 144l65 82l49 -82l-45 -144l116 25z" />
    <glyph glyph-name="daggerdbl" unicode="&#x2021;" horiz-adv-x="523" 
d="M487 481l-67 -51l-110 22l6 -143l-44 -164l110 20l56 -53l-71 -54l-100 25v-144l-64 -78l-50 78l45 144l-114 -25l-55 59l69 48l106 -20v164l43 143l-114 -22l-54 55l69 54l108 -25l-7 144l66 82l48 -82l-45 -144l117 25z" />
    <glyph glyph-name="bullet" unicode="&#x2022;" horiz-adv-x="441" 
d="M331 467q46 -45 46 -110t-45 -110.5t-110 -45.5t-111 45.5t-46 110.5t45.5 110.5t110.5 45.5t110 -46z" />
    <glyph glyph-name="ellipsis" unicode="&#x2026;" horiz-adv-x="825" 
d="M166 -12q-31 0 -54 23t-23 54q0 32 22.5 55t54.5 23t55 -23t23 -55t-23 -54.5t-55 -22.5zM413 -12q-31 0 -54 23t-23 54q0 32 22.5 55t54.5 23t55 -23t23 -55t-23 -54.5t-55 -22.5zM661 -12q-31 0 -54 23t-23 54q0 32 22.5 55t54.5 23t55 -23t23 -55t-23 -54.5t-55 -22.5
z" />
    <glyph glyph-name="perthousand" unicode="&#x2030;" horiz-adv-x="1052" 
d="M1053 245q0 -100 -51.5 -174.5t-146.5 -74.5q-72 0 -108 44t-36 117q0 100 51.5 174t146.5 74q72 0 108 -43.5t36 -116.5zM697 245q0 -100 -51.5 -174.5t-146.5 -74.5q-72 0 -108 44t-36 117q0 100 51.5 174t146.5 74q72 0 108 -43.5t36 -116.5zM601 699l-424 -711h-67
l393 657h-155q20 -37 20 -91q0 -100 -51.5 -175t-147.5 -75q-71 0 -107.5 44t-36.5 117q0 100 51.5 174t147.5 74q40 0 69 -14h308zM950 247q0 79 -51 79q-25 0 -42.5 -19t-26.5 -48t-12.5 -55t-3.5 -49q0 -80 51 -80q25 0 42.5 19t26.5 48t12.5 55.5t3.5 49.5zM594 247
q0 79 -51 79q-25 0 -42.5 -19t-26.5 -48t-12.5 -55t-3.5 -49q0 -80 51 -80q25 0 42.5 19t26.5 48t12.5 55.5t3.5 49.5zM265 555q0 79 -52 79q-25 0 -42.5 -18.5t-26 -48t-12 -55.5t-3.5 -49q0 -80 51 -80q25 0 42.5 19t26.5 48t12.5 55.5t3.5 49.5z" />
    <glyph glyph-name="guilsinglleft" unicode="&#x2039;" horiz-adv-x="304" 
d="M284 490l-141 -158l99 -159l-77 -11l-132 170l176 172z" />
    <glyph glyph-name="guilsinglright" unicode="&#x203a;" horiz-adv-x="310" 
d="M280 332l-180 -170l-74 11l145 159l-98 158l79 14z" />
    <glyph glyph-name="fraction" unicode="&#x2044;" horiz-adv-x="132" 
d="M-96 -27h-79l399 780h80z" />
    <glyph glyph-name="Euro" unicode="&#x20ac;" horiz-adv-x="480" 
d="M466 35q-51 -26 -87 -36.5t-84 -10.5q-86 0 -139 48t-60 137h-74l7 47h68q1 30 9 62h-69l6 47h76q33 88 100 134.5t159 46.5q35 0 73 -13t64 -35l-67 -76q-44 39 -91 39q-36 0 -66 -28.5t-46 -67.5h161l-6 -47h-170q-8 -40 -8 -62h170l-7 -47h-161q6 -45 32 -73t68 -28
q19 0 39 8t32 16t34 25z" />
    <glyph glyph-name="trademark" unicode="&#x2122;" horiz-adv-x="568" 
d="M523 732l-33 -235h-59l17 128q-26 -50 -68 -128h-36l-34 134l-18 -134h-52l33 235h74l32 -136l71 136h73zM261 732l-6 -46h-73l-26 -189h-61l27 189h-71l6 46h204z" />
    <glyph glyph-name="Omega" unicode="&#x2126;" horiz-adv-x="781" 
d="M684 0h-280l10 76q44 16 78.5 56t53 90.5t27.5 101t9 98.5q0 95 -37 158.5t-119 63.5q-50 0 -91.5 -26t-67 -66.5t-43 -91t-24.5 -97t-7 -87.5q0 -160 96 -200l-10 -76h-279l12 99h64l67 -6q-40 28 -63.5 89t-23.5 132q0 181 108.5 305t274.5 124q137 0 211 -84t74 -222
q0 -101 -44.5 -202t-115.5 -142l69 6h64z" />
    <glyph glyph-name="partialdiff" unicode="&#x2202;" horiz-adv-x="555" 
d="M369 385q1 4 3 51q0 36 -5.5 69t-18.5 63.5t-38 49t-60 18.5q-30 0 -58.5 -10t-41.5 -20l-13 -10l-37 75q7 8 21.5 20t64 32t105.5 20q112 0 167.5 -77.5t55.5 -216.5q0 -110 -23.5 -195.5t-58 -133.5t-79.5 -79t-81.5 -41.5t-70.5 -10.5q-30 0 -59 8.5t-58 27t-47 55.5
t-18 87q0 58 19 104.5t46.5 74t62.5 45.5t63.5 25t52.5 7q19 0 36 -3t28.5 -8.5t19 -10t14.5 -10t8 -6.5zM355 293q-25 32 -81 32q-32 0 -57.5 -16t-39.5 -40t-20.5 -42.5t-8.5 -30.5q-2 -8 -2 -25q0 -83 71 -83q33 0 60.5 27t43 65.5t24 67t10.5 45.5z" />
    <glyph glyph-name="Delta" unicode="&#x2206;" horiz-adv-x="631" 
d="M564 0h-594l9 67l333 665h103l158 -665zM103 99h321q-47 199 -86 388q-3 18 -5.5 56t-3.5 43q-28 -80 -38 -100q-120 -254 -188 -387z" />
    <glyph glyph-name="product" unicode="&#x220f;" horiz-adv-x="833" 
d="M693 -229h-135v862h-284v-862h-136v862h-100v99h757v-99h-102v-862z" />
    <glyph glyph-name="summation" unicode="&#x2211;" horiz-adv-x="726" 
d="M670 -229h-614v130l272 376l-272 356v99h604v-99h-449q45 -48 49 -53l208 -270l-252 -351q-8 -11 -25.5 -29t-21.5 -22h501v-137z" />
    <glyph glyph-name="minus" unicode="&#x2212;" horiz-adv-x="636" 
d="M566 205h-496v88h496v-88z" />
    <glyph glyph-name="radical" unicode="&#x221a;" horiz-adv-x="605" 
d="M306 -230h-110l-140 436l-90 -30l-25 81l190 67l127 -402l297 1046h93z" />
    <glyph glyph-name="infinity" unicode="&#x221e;" horiz-adv-x="812" 
d="M406 181q-42 -49 -82.5 -78t-88.5 -29q-76 0 -120.5 49t-44.5 126t44.5 126t120.5 49q48 0 88.5 -29t82.5 -78q42 49 82.5 78t88.5 29q76 0 120.5 -49t44.5 -126t-44.5 -126t-120.5 -49q-48 0 -88.5 29t-82.5 78zM466 249q61 -65 112 -65q31 0 48 17.5t17 47.5t-17 47.5
t-48 17.5q-51 0 -112 -65zM346 249q-61 65 -112 65q-31 0 -48 -17.5t-17 -47.5t17 -47.5t48 -17.5q51 0 112 65z" />
    <glyph glyph-name="integral" unicode="&#x222b;" horiz-adv-x="256" 
d="M-23 -227v80q48 0 74 32.5t26 80.5v559q0 111 45.5 164t159.5 53v-80q-83 0 -83 -113v-559q0 -111 -52.5 -164t-169.5 -53z" />
    <glyph glyph-name="approxequal" unicode="&#x2248;" horiz-adv-x="657" 
d="M513 417l70 -45q-22 -42 -60.5 -72t-81.5 -30q-49 0 -121 35t-95 35q-42 0 -81 -59l-70 45q22 42 60.5 72t81.5 30q49 0 121 -35t95 -35q42 0 81 59zM513 226l70 -45q-22 -42 -60.5 -72t-81.5 -30q-49 0 -121 35t-95 35q-42 0 -81 -59l-70 45q22 42 60.5 72t81.5 30
q49 0 121 -35t95 -35q42 0 81 59z" />
    <glyph glyph-name="notequal" unicode="&#x2260;" horiz-adv-x="630" 
d="M564 109h-271l-51 -109h-95l51 109h-132v88h173l48 105h-221v88h262l50 107h98l-50 -107h138v-88h-180l-49 -105h229v-88z" />
    <glyph glyph-name="lessequal" unicode="&#x2264;" horiz-adv-x="630" 
d="M564 106l-498 177v52l498 176v-90l-258 -91q-43 -16 -106 -21q53 -2 104 -19l260 -92v-92zM565 1h-496v88h496v-88z" />
    <glyph glyph-name="greaterequal" unicode="&#x2265;" horiz-adv-x="630" 
d="M565 283l-499 -177v92l260 92q52 18 105 19q-62 5 -107 21l-258 91v90l499 -176v-52zM563 1h-496v88h496v-88z" />
    <glyph glyph-name="lozenge" unicode="&#x25ca;" horiz-adv-x="504" 
d="M273 -14h-42l-206 376l206 377h42l206 -377zM254 101l136 261l-136 262h-4l-137 -262l137 -261h4z" />
    </font>
</defs>
</svg>
